<svg width="551" height="331" viewBox="0 0 551 331" fill="none" xmlns="http://www.w3.org/2000/svg">
<g filter="url(#filter0_d)">
<g filter="url(#filter1_dd)">
<rect x="13" y="12" width="525" height="305.028" rx="7.28973" fill="url(#paint0_linear)"/>
</g>
<circle cx="61" cy="272" r="25" fill="white"/>
<path d="M72 272.608L54 262.215L58.5 272.608L54 283L72 272.608Z" fill="black"/>
<g clip-path="url(#clip0)">
<path d="M440.054 152.985L437.653 158.588L422.927 178.117C422.927 178.117 412.842 189.002 418.445 189.642C424.047 190.282 427.729 179.557 427.729 179.557L445.016 162.43L446.937 154.586L440.054 152.985Z" fill="#9F616A"/>
<path d="M447.417 130.256L445.097 130.905C445.097 130.905 434.678 158.583 435.639 161.945C436.599 165.306 440.921 169.468 442.842 169.148C444.763 168.828 447.417 130.256 447.417 130.256Z" fill="#605E78"/>
<path d="M479.838 272.493C479.838 272.493 478.819 277.599 481.882 275.556C484.944 273.512 486.541 269.561 486.541 269.561L479.838 272.493Z" fill="#2F2E41"/>
<path d="M443.576 157.308C443.576 157.308 411.081 271.919 422.606 275.281C434.131 278.642 451.099 274.961 450.939 272.72C450.779 270.479 447.897 226.139 447.897 226.139C447.897 226.139 464.705 285.045 485.514 271.279C506.324 257.513 501.682 254.952 499.761 253.991C497.84 253.031 468.867 207.41 469.027 198.926C469.187 190.443 468.707 163.871 465.185 159.869L443.576 157.308Z" fill="#312F44"/>
<path d="M464.214 116.559C462.964 115.428 462.184 113.868 462.03 112.19C461.875 110.511 462.357 108.835 463.379 107.495C463.244 107.622 463.112 107.754 462.985 107.894C461.791 109.217 461.17 110.96 461.261 112.74C461.351 114.52 462.144 116.191 463.466 117.386C464.788 118.582 466.531 119.203 468.311 119.114C470.091 119.025 471.763 118.233 472.959 116.912C473.085 116.772 473.203 116.627 473.316 116.479C472.085 117.631 470.466 118.279 468.781 118.294C467.095 118.308 465.465 117.689 464.214 116.559Z" fill="#2F2E41"/>
<path d="M463.585 118.17C471.232 118.17 477.431 111.971 477.431 104.324C477.431 96.6767 471.232 90.4775 463.585 90.4775C455.937 90.4775 449.738 96.6767 449.738 104.324C449.738 111.971 455.937 118.17 463.585 118.17Z" fill="#2F2E41"/>
<path d="M426.287 274.801C426.287 274.801 422.605 278.482 426.287 278.482C429.968 278.482 433.49 276.081 433.49 276.081L426.287 274.801Z" fill="#2F2E41"/>
<path d="M454.781 112.968C454.781 112.968 457.182 122.893 455.421 124.813C453.66 126.734 449.818 128.175 449.818 128.175L450.459 146.103C450.459 146.103 457.822 143.542 458.142 143.222C458.462 142.902 465.025 132.497 465.025 132.497L471.428 126.414C471.428 126.414 461.664 121.772 464.545 113.768C467.426 105.765 454.781 112.968 454.781 112.968Z" fill="#9F616A"/>
<path d="M468.92 109.658C469.657 105.121 466.575 100.845 462.037 100.109C457.499 99.3724 453.224 102.454 452.488 106.992C451.751 111.529 454.833 115.805 459.371 116.541C463.908 117.278 468.184 114.196 468.92 109.658Z" fill="#9F616A"/>
<path d="M465.186 159.869C465.186 159.869 468.868 147.703 470.628 146.103C472.389 144.502 476.711 129.455 476.711 129.455C476.711 129.455 473.99 125.773 471.749 125.773C469.508 125.773 467.427 126.574 464.866 128.975C463.66 130.106 461.46 131.35 459.47 132.35C458.763 132.711 457.992 132.927 457.201 132.987C456.411 133.046 455.616 132.947 454.863 132.696C454.111 132.445 453.416 132.047 452.82 131.524C452.223 131.001 451.736 130.365 451.389 129.652C450.991 128.807 450.86 127.997 451.26 127.374C451.26 127.374 445.337 128.975 445.017 131.216C444.697 133.457 445.017 138.099 444.537 139.059C444.057 140.02 442.616 141.461 443.256 147.543C443.896 153.626 442.588 161.318 442.588 161.318C448.567 167.023 456.851 163.501 465.186 159.869Z" fill="#605E78"/>
<path d="M460.623 105.684C464.513 105.684 467.666 103.534 467.666 100.882C467.666 98.2301 464.513 96.0801 460.623 96.0801C456.733 96.0801 453.58 98.2301 453.58 100.882C453.58 103.534 456.733 105.684 460.623 105.684Z" fill="#2F2E41"/>
<path d="M472.629 100.562C476.342 100.562 479.352 97.5523 479.352 93.8392C479.352 90.1262 476.342 87.1162 472.629 87.1162C468.916 87.1162 465.906 90.1262 465.906 93.8392C465.906 97.5523 468.916 100.562 472.629 100.562Z" fill="#2F2E41"/>
<path d="M477.43 98.6413C475.744 98.6411 474.12 98.0074 472.879 96.8659C471.639 95.7245 470.872 94.1585 470.732 92.4785C470.717 92.6634 470.707 92.8499 470.707 93.0388C470.707 94.8212 471.415 96.5305 472.675 97.791C473.936 99.0515 475.645 99.76 477.427 99.7608C479.21 99.7616 480.919 99.0545 482.181 97.7951C483.442 96.5356 484.151 94.8269 484.153 93.0445V93.0388C484.153 92.8499 484.143 92.6634 484.128 92.4785C483.988 94.1585 483.221 95.7245 481.981 96.8659C480.74 98.0074 479.116 98.6411 477.43 98.6413Z" fill="#2F2E41"/>
<path d="M461.663 201.464H459.426L454.957 240.447L469.698 239.953L461.663 201.464Z" fill="#3F3D56"/>
<path opacity="0.2" d="M461.663 201.464H459.426L454.957 240.447L469.698 239.953L461.663 201.464Z" fill="#312F44"/>
<path d="M460.917 200.966L458.186 240.2L491.642 242.684L494.373 204.442L460.917 200.966Z" fill="#605E78"/>
<path opacity="0.2" d="M472.182 204.941C472.457 204.941 472.68 204.718 472.68 204.442C472.68 204.167 472.457 203.944 472.182 203.944C471.907 203.944 471.684 204.167 471.684 204.442C471.684 204.718 471.907 204.941 472.182 204.941Z" fill="#312F44"/>
<path opacity="0.2" d="M482.609 206.18C482.885 206.18 483.108 205.957 483.108 205.682C483.108 205.407 482.885 205.184 482.609 205.184C482.334 205.184 482.111 205.407 482.111 205.682C482.111 205.957 482.334 206.18 482.609 206.18Z" fill="#312F44"/>
<path d="M482.734 205.686H482.487C482.487 205.579 482.662 195.105 476.647 194.14C475.462 193.951 474.493 194.219 473.768 194.937C471.284 197.4 472.312 204.356 472.322 204.425L472.078 204.463C472.033 204.171 471.023 197.311 473.596 194.762C474.38 193.982 475.424 193.69 476.688 193.892C482.913 194.889 482.738 205.579 482.734 205.686Z" fill="#3F3D56"/>
<path d="M477.19 151.546L476.389 160.51L477.99 187.402C477.99 187.402 481.672 201.008 476.069 200.688C470.467 200.368 472.547 186.442 472.547 186.442L469.986 155.228L477.19 151.546Z" fill="#9F616A"/>
<path d="M472.548 127.214L476.71 129.455C476.71 129.455 482.313 167.534 479.111 171.216C475.91 174.897 469.347 176.338 469.027 174.897C468.706 173.457 467.586 144.182 467.586 144.182L472.548 127.214Z" fill="#605E78"/>
</g>
</g>
<defs>
<filter id="filter0_d" x="9" y="12" width="533" height="313.028" filterUnits="userSpaceOnUse" color-interpolation-filters="sRGB">
<feFlood flood-opacity="0" result="BackgroundImageFix"/>
<feColorMatrix in="SourceAlpha" type="matrix" values="0 0 0 0 0 0 0 0 0 0 0 0 0 0 0 0 0 0 127 0" result="hardAlpha"/>
<feOffset dy="4"/>
<feGaussianBlur stdDeviation="2"/>
<feComposite in2="hardAlpha" operator="out"/>
<feColorMatrix type="matrix" values="0 0 0 0 0 0 0 0 0 0 0 0 0 0 0 0 0 0 0.25 0"/>
<feBlend mode="normal" in2="BackgroundImageFix" result="effect1_dropShadow"/>
<feBlend mode="normal" in="SourceGraphic" in2="effect1_dropShadow" result="shape"/>
</filter>
<filter id="filter1_dd" x="0.50332" y="0.54471" width="549.993" height="330.021" filterUnits="userSpaceOnUse" color-interpolation-filters="sRGB">
<feFlood flood-opacity="0" result="BackgroundImageFix"/>
<feColorMatrix in="SourceAlpha" type="matrix" values="0 0 0 0 0 0 0 0 0 0 0 0 0 0 0 0 0 0 127 0" result="hardAlpha"/>
<feOffset dy="1.04139"/>
<feGaussianBlur stdDeviation="6.24834"/>
<feColorMatrix type="matrix" values="0 0 0 0 0 0 0 0 0 0 0 0 0 0 0 0 0 0 0.08 0"/>
<feBlend mode="normal" in2="BackgroundImageFix" result="effect1_dropShadow"/>
<feColorMatrix in="SourceAlpha" type="matrix" values="0 0 0 0 0 0 0 0 0 0 0 0 0 0 0 0 0 0 127 0" result="hardAlpha"/>
<feOffset/>
<feGaussianBlur stdDeviation="0.520695"/>
<feColorMatrix type="matrix" values="0 0 0 0 0 0 0 0 0 0 0 0 0 0 0 0 0 0 0.08 0"/>
<feBlend mode="normal" in2="effect1_dropShadow" result="effect2_dropShadow"/>
<feBlend mode="normal" in="SourceGraphic" in2="effect2_dropShadow" result="shape"/>
</filter>
<linearGradient id="paint0_linear" x1="69" y1="292" x2="742.257" y2="-115.998" gradientUnits="userSpaceOnUse">
<stop stop-color="#35CC79"/>
<stop offset="1" stop-color="#347D55" stop-opacity="0.65"/>
</linearGradient>
<clipPath id="clip0">
<rect width="227.391" height="221.971" fill="white" transform="translate(288 57)"/>
</clipPath>
</defs>
</svg>
