<svg width="551" height="331" viewBox="0 0 551 331" fill="none" xmlns="http://www.w3.org/2000/svg">
<g filter="url(#filter0_dd)">
<rect x="13" y="12" width="525" height="305.028" rx="7.28973" fill="url(#paint0_linear)"/>
</g>
<circle cx="67" cy="270" r="25" fill="white"/>
<path d="M78 270.608L60 260.215L64.5 270.608L60 281L78 270.608Z" fill="black"/>
<g clip-path="url(#clip0)">
<path d="M502.963 154.126C490.459 104.959 447.255 69.4669 396.543 68.0433C369.733 67.2907 341.522 76.1824 320.982 107.298C284.264 162.919 323.238 201.356 350.41 219.62C363.537 228.461 375.365 239.093 385.552 251.206C403.906 272.985 439.214 300.049 481.264 257.644C511.742 226.909 511.291 186.876 502.963 154.126Z" fill="#F2F2F2"/>
<path d="M399.541 197.698V261.844H409.627V203.346H449.97V261.844H460.056V133.553H449.97C446.628 133.553 441.498 150.959 441.498 168.45C441.498 181.633 443.038 192.932 445.227 197.698H399.541ZM449.97 197.698H449.872C449.905 197.627 449.937 197.551 449.97 197.476V197.698Z" fill="#3F3D56"/>
<path d="M436.916 101.803H436.916C428.637 101.803 421.926 109.251 421.926 118.438V130.111H425.516L427.594 125.786L427.075 130.111H450.15L452.04 126.18L451.567 130.111H454.165V120.946C454.166 110.373 446.443 101.803 436.916 101.803Z" fill="#2F2E41"/>
<path d="M419.739 178.068L410.536 181.98L378.552 207.981C377.376 209.426 376.656 211.188 376.482 213.043C376.251 216.034 366.588 231.68 370.039 233.751C373.49 235.822 385.915 242.035 386.606 237.893C387.296 233.751 390.978 216.034 390.978 216.034L421.81 188.423L419.739 178.068Z" fill="#2F2E41"/>
<path d="M383.614 234.441L379.703 245.946C379.703 245.946 383.844 250.317 381.773 253.999V266.654H378.552L377.632 259.981C377.632 259.981 373.963 266.57 372.109 266.654C368.225 266.831 360.531 268.213 360.301 266.142C360.071 264.071 366.127 262.052 366.127 262.052L372.57 244.335L375.331 233.521L383.614 234.441Z" fill="#2F2E41"/>
<path d="M443.67 175.077C443.67 175.077 445.741 195.325 439.758 199.007C433.776 202.688 407.315 214.423 407.315 214.423C407.315 214.423 418.59 225.007 416.289 227.538C413.988 230.069 403.634 236.972 402.253 235.592C400.872 234.211 385.456 217.644 387.297 212.352C389.138 207.06 414.678 189.803 414.678 189.803L417.669 178.988L418.59 170.245L428.254 164.032L443.67 175.077Z" fill="#2F2E41"/>
<path d="M433.127 127.934C438.425 127.934 442.72 123.639 442.72 118.341C442.72 113.044 438.425 108.749 433.127 108.749C427.83 108.749 423.535 113.044 423.535 118.341C423.535 123.639 427.83 127.934 433.127 127.934Z" fill="#FFB9B9"/>
<path d="M440.564 122.271C440.564 122.271 440.104 131.014 447.237 133.775C454.37 136.536 429.52 154.484 429.52 154.484V134.465C429.52 134.465 432.741 131.014 429.52 125.722L440.564 122.271Z" fill="#FFB9B9"/>
<path d="M455.864 163.342L454.023 172.315L448.501 203.148C448.501 203.148 453.103 216.264 446.89 216.033C440.678 215.803 443.669 201.768 443.669 201.768L446.89 176.227V166.333L455.864 163.342Z" fill="#FFB9B9"/>
<path d="M416.289 158.971L414.218 167.024L404.784 189.803C404.784 189.803 398.342 200.618 403.634 200.388C408.926 200.158 408.926 189.803 408.926 189.803L419.74 171.396V161.042L416.289 158.971Z" fill="#FFB9B9"/>
<path d="M414.677 226.158L422.271 233.291C422.271 233.291 427.563 232.141 429.634 238.353C431.704 244.566 433.085 248.477 433.085 248.477L430.324 250.088L426.872 245.256C426.872 245.256 424.802 254 422.731 254.69C420.66 255.38 410.306 259.982 411.226 254.69L416.288 247.327C416.288 247.327 416.978 239.043 414.908 238.353C412.837 237.663 407.314 230.76 407.314 230.76L414.677 226.158Z" fill="#2F2E41"/>
<path d="M444.034 182.21C444.034 182.21 422.405 174.387 421.024 175.077C419.996 175.531 418.902 175.815 417.783 175.918L417.803 172.776C417.803 172.776 424.936 170.245 428.847 171.856C432.759 173.466 444.724 180.599 444.724 180.599L444.034 182.21Z" fill="#3F3D56"/>
<path d="M430.899 149.882C430.899 149.882 437.111 142.749 438.952 138.377C440.117 135.727 442.254 133.625 444.924 132.505C444.924 132.505 458.74 135.616 458.51 141.138C458.28 146.661 449.767 155.174 449.767 155.174C449.767 155.174 450.917 185.777 444.705 185.316C443.365 183.717 442.419 181.826 441.943 179.794C441.253 176.573 419.854 173.121 419.854 173.121C419.854 173.121 418.014 176.343 417.783 174.962C417.553 173.582 419.624 139.758 419.624 139.758L430.597 132.505L430.899 149.882Z" fill="#D0CDE1"/>
<path d="M456.738 138.915L456.892 139.001C457.383 139.277 457.793 139.679 458.078 140.166C458.363 140.653 458.513 141.206 458.513 141.77L458.51 158.846C458.512 159.31 458.615 159.769 458.811 160.189C459.008 160.61 459.293 160.982 459.648 161.281C460.535 162.035 461.357 163.122 459.66 163.687C456.899 164.607 446.085 169.209 445.855 167.599C445.625 165.988 445.165 164.147 445.855 164.147C446.395 164.147 449.615 147.648 452.202 140.593C452.36 140.161 452.61 139.769 452.935 139.443C453.259 139.117 453.651 138.866 454.082 138.706C454.514 138.546 454.974 138.483 455.433 138.519C455.891 138.555 456.337 138.69 456.738 138.915Z" fill="#D0CDE1"/>
<path d="M422.73 138.952L419.509 139.873L415.827 155.749C415.827 155.749 411.455 156.669 412.836 158.28C414.217 159.891 419.969 164.032 419.969 164.032L422.73 138.952Z" fill="#D0CDE1"/>
<path d="M441.178 106.386C440.456 105.418 439.522 104.628 438.446 104.079C437.37 103.53 436.182 103.236 434.975 103.221H434.68C429.006 103.221 424.406 108.355 424.406 114.689V114.689H426.308L426.615 112.352L427.065 114.689H438.341L439.286 112.712L439.05 114.689H441.268C442.304 119.83 440.816 124.971 436.806 130.112H440.585L442.475 126.158L442.002 130.112H449.206L450.623 121.017C450.623 114.205 446.665 108.428 441.178 106.386Z" fill="#2F2E41"/>
<path d="M248.466 212.519C250.887 207.249 252.589 194.757 252.589 180.18C252.589 160.841 246.917 141.596 243.222 141.596H232.07V283.443H243.222V218.764H287.828V283.443H298.979V212.519H248.466ZM243.222 212.274C243.258 212.356 243.294 212.44 243.33 212.519H243.222V212.274Z" fill="#3F3D56"/>
<path d="M294.947 186.642C294.947 186.642 308.377 192.21 304.118 195.486C299.86 198.761 291.016 191.555 291.343 190.572C291.671 189.59 290.033 187.297 290.033 187.297L294.947 186.642Z" fill="#9F616A"/>
<path d="M283.153 142.748L287.412 146.679L288.394 158.143L291.67 170.263C291.67 170.263 297.239 181.728 296.256 184.021C295.273 186.314 297.239 186.969 297.239 186.969L289.705 189.917C289.705 189.917 281.516 180.745 281.516 178.78C281.516 176.815 283.153 142.748 283.153 142.748Z" fill="#575A88"/>
<path opacity="0.1" d="M283.153 142.748L287.412 146.679L288.394 158.143L291.67 170.263C291.67 170.263 297.239 181.728 296.256 184.021C295.273 186.314 297.239 186.969 297.239 186.969L289.705 189.917C289.705 189.917 281.516 180.745 281.516 178.78C281.516 176.815 283.153 142.748 283.153 142.748Z" fill="black"/>
<path d="M323.444 260.671C323.444 260.671 321.806 268.205 321.479 268.86C321.151 269.515 327.702 271.808 327.702 271.808L335.564 266.239C335.564 266.239 332.288 259.033 332.288 257.723L323.444 260.671Z" fill="#575A88"/>
<path d="M280.533 187.297L282.826 189.917C282.826 189.917 330.323 195.814 331.305 204.985C332.288 214.157 339.167 257.395 335.236 258.706C331.305 260.016 321.151 264.929 321.151 262.309C321.151 259.688 314.6 223.656 315.91 217.105C315.91 217.105 259.242 209.899 257.931 201.71C256.621 193.521 259.242 189.917 259.242 189.917L280.533 187.297Z" fill="#2F2E41"/>
<path opacity="0.1" d="M280.533 187.297L282.826 189.917C282.826 189.917 330.323 195.814 331.305 204.985C332.288 214.157 339.167 257.395 335.236 258.706C331.305 260.016 321.151 264.929 321.151 262.309C321.151 259.688 314.6 223.656 315.91 217.105C315.91 217.105 259.242 209.899 257.931 201.71C256.621 193.521 259.242 189.917 259.242 189.917L280.533 187.297Z" fill="black"/>
<path d="M322.789 268.205C322.789 268.205 321.479 265.257 320.823 266.24C320.168 267.222 317.875 278.687 320.168 278.687C322.461 278.687 343.425 283.928 346.373 283.273C349.321 282.618 354.89 283.6 354.235 280.325C353.58 277.049 350.304 276.722 350.304 276.722C350.304 276.722 338.184 269.515 337.529 265.912C336.874 262.309 333.271 264.274 333.271 264.274V266.567C333.271 266.567 326.392 271.808 322.789 268.205Z" fill="#2F2E41"/>
<path d="M260.552 117.854C260.552 117.854 262.845 128.991 257.931 129.974C253.018 130.956 264.155 137.507 264.155 137.507L271.361 141.438L276.602 136.197C276.602 136.197 271.853 126.534 275.456 119.328C279.059 112.121 260.552 117.854 260.552 117.854Z" fill="#9F616A"/>
<path d="M276.602 136.197L271.361 141.438L264.155 137.507C264.155 137.507 253.018 130.956 257.931 129.974C261.092 129.341 261.269 124.506 260.997 121.139C260.909 120.037 260.76 118.94 260.552 117.854C260.552 117.854 279.059 112.121 275.456 119.328C274.909 120.441 274.529 121.628 274.329 122.852C273.225 129.328 276.602 136.197 276.602 136.197Z" fill="#9F616A"/>
<path d="M294.945 270.17V277.704H307.393L308.375 274.756L307.065 266.895L294.945 270.17Z" fill="#575A88"/>
<path d="M243.52 193.848C243.52 193.848 243.52 213.174 251.381 213.829C259.243 214.484 287.413 218.087 287.413 218.087C287.413 218.087 289.051 250.189 291.999 260.671C294.947 271.153 292.326 271.808 294.947 272.463C297.567 273.118 308.704 270.825 308.377 268.532C308.049 266.239 306.739 208.261 306.739 208.261C306.739 208.261 309.687 195.813 270.38 189.917L243.52 193.848Z" fill="#2F2E41"/>
<path d="M295.928 275.412C295.928 275.412 293.963 271.153 293.635 272.464C293.307 273.774 289.377 285.239 293.307 286.221C297.238 287.204 309.686 292.445 317.875 292.117C326.064 291.79 327.046 291.462 327.046 291.462C327.046 291.462 329.339 288.187 326.391 286.221C323.443 284.256 311.323 272.791 310.668 271.481C310.013 270.171 305.1 269.188 305.1 271.481C305.1 273.774 298.221 278.36 295.928 275.412Z" fill="#2F2E41"/>
<path opacity="0.1" d="M275.457 119.328C274.909 120.441 274.53 121.628 274.33 122.852C272.699 123.838 271.608 123.586 269.561 123.586C266.524 123.586 265.299 119.704 263.337 117.69C263.183 115.82 260.553 117.854 260.553 117.854C260.553 117.854 279.06 112.121 275.457 119.328Z" fill="black"/>
<path d="M268.741 123.422C274.711 123.422 279.551 118.582 279.551 112.612C279.551 106.642 274.711 101.803 268.741 101.803C262.771 101.803 257.932 106.642 257.932 112.612C257.932 118.582 262.771 123.422 268.741 123.422Z" fill="#9F616A"/>
<path d="M287.412 146.679C287.412 146.679 285.774 158.471 284.791 162.73C283.808 166.988 282.498 186.642 281.843 189.262C281.188 191.883 277.257 192.538 269.396 191.555C268.902 191.493 268.406 191.456 267.908 191.444C263.067 191.29 257.528 193.101 252.402 194.523C249.454 195.342 246.64 196.03 244.173 196.141C240.439 196.311 239.345 192.171 239.473 187.69C239.594 183.52 240.776 179.049 241.88 177.47C243.869 174.627 241.913 149.1 242.647 140.681V140.678C242.758 139.394 242.932 138.51 243.191 138.162C245.156 135.542 257.931 128.991 259.362 129.256C260.79 129.521 272.999 137.18 272.999 137.18C275.947 137.18 275.852 133.983 275.852 133.983C275.852 133.983 277.912 137.835 281.843 138.817C285.774 139.8 287.412 146.679 287.412 146.679Z" fill="#575A88"/>
<path d="M265.515 189.146C265.515 189.146 286.615 189.817 282.919 192.324C279.223 194.831 262.844 197.124 262.517 193.848C262.189 190.573 265.515 189.146 265.515 189.146Z" fill="#9F616A"/>
<path opacity="0.1" d="M267.908 191.443C267.977 192.701 264.593 195.535 263.499 197.451C262.893 198.512 258.203 197.114 252.402 194.523C247.95 192.524 243.631 190.242 239.473 187.69C239.594 183.52 240.776 179.049 241.88 177.47C243.869 174.626 241.913 149.099 242.647 140.681V140.678C242.822 140.589 243.004 140.515 243.19 140.455H247.121C260.551 146.679 245.156 173.539 245.156 173.539C245.156 173.539 265.465 190.245 267.43 190.9C267.559 190.924 267.676 190.991 267.763 191.089C267.849 191.188 267.901 191.313 267.908 191.443Z" fill="black"/>
<path d="M247.121 138.49H243.19C243.19 138.49 239.587 139.473 236.639 146.024C233.691 152.575 222.881 172.884 232.381 180.746C241.88 188.607 262.189 197.779 263.499 195.486C264.809 193.193 269.395 189.59 267.43 188.935C265.465 188.28 245.156 171.574 245.156 171.574C245.156 171.574 260.551 144.714 247.121 138.49Z" fill="#575A88"/>
<path d="M267.079 107.583C267.079 107.583 267.553 101.016 273.405 103.693C279.258 106.371 278.876 98.9906 277.107 97.6864C275.339 96.3822 275.395 96.0595 268.927 96.932C262.459 97.8046 249.901 99.283 253.962 112.288C258.022 125.294 261.699 121.948 261.699 121.948C261.699 121.948 258.472 110.245 261.742 112.475L265.012 114.704L266.738 114.339L267.079 107.583Z" fill="#2F2E41"/>
<path d="M508.55 202.141C508.55 196.229 464.614 191.436 410.417 191.436C356.219 191.436 312.283 196.229 312.283 202.141C312.283 204.433 318.887 206.556 330.126 208.297V281.54H335.478V209.052C353.479 211.373 380.368 212.846 410.417 212.846C440.713 212.846 467.8 211.348 485.801 208.995V281.54H491.154V208.227C502.12 206.499 508.55 204.402 508.55 202.141Z" fill="#3F3D56"/>
<path d="M422.712 202.365C433.747 202.365 442.693 200.165 442.693 197.452C442.693 194.738 433.747 192.538 422.712 192.538C411.676 192.538 402.73 194.738 402.73 197.452C402.73 200.165 411.676 202.365 422.712 202.365Z" fill="#F2F2F2"/>
<path d="M422.71 201.479C431.756 201.479 439.088 199.676 439.088 197.451C439.088 195.227 431.756 193.424 422.71 193.424C413.665 193.424 406.332 195.227 406.332 197.451C406.332 199.676 413.665 201.479 422.71 201.479Z" fill="#D0CDE1"/>
<path d="M348.354 206.296C359.39 206.296 368.336 204.096 368.336 201.382C368.336 198.669 359.39 196.469 348.354 196.469C337.319 196.469 328.373 198.669 328.373 201.382C328.373 204.096 337.319 206.296 348.354 206.296Z" fill="#F2F2F2"/>
<path d="M348.355 205.409C357.4 205.409 364.733 203.606 364.733 201.382C364.733 199.158 357.4 197.354 348.355 197.354C339.309 197.354 331.977 199.158 331.977 201.382C331.977 203.606 339.309 205.409 348.355 205.409Z" fill="#D0CDE1"/>
<path d="M422.246 197.105C427.507 197.105 431.772 196.431 431.772 195.601C431.772 194.77 427.507 194.097 422.246 194.097C416.985 194.097 412.721 194.77 412.721 195.601C412.721 196.431 416.985 197.105 422.246 197.105Z" fill="#9F616A"/>
<path d="M417.17 195.036C418.832 195.036 420.178 194.307 420.178 193.407C420.178 192.507 418.832 191.777 417.17 191.777C415.509 191.777 414.162 192.507 414.162 193.407C414.162 194.307 415.509 195.036 417.17 195.036Z" fill="#3F3D56"/>
<path d="M416.041 195.036C417.703 195.036 419.049 194.307 419.049 193.407C419.049 192.507 417.703 191.777 416.041 191.777C414.38 191.777 413.033 192.507 413.033 193.407C413.033 194.307 414.38 195.036 416.041 195.036Z" fill="#3F3D56"/>
<path d="M429.201 195.412C430.863 195.412 432.21 194.683 432.21 193.783C432.21 192.883 430.863 192.153 429.201 192.153C427.54 192.153 426.193 192.883 426.193 193.783C426.193 194.683 427.54 195.412 429.201 195.412Z" fill="#3F3D56"/>
<path d="M422.309 195.036C423.97 195.036 425.317 194.307 425.317 193.407C425.317 192.507 423.97 191.777 422.309 191.777C420.648 191.777 419.301 192.507 419.301 193.407C419.301 194.307 420.648 195.036 422.309 195.036Z" fill="#3F3D56"/>
<path d="M427.448 195.036C429.109 195.036 430.456 194.307 430.456 193.407C430.456 192.507 429.109 191.777 427.448 191.777C425.786 191.777 424.439 192.507 424.439 193.407C424.439 194.307 425.786 195.036 427.448 195.036Z" fill="#3F3D56"/>
<path d="M431.332 192.404C425.896 194.249 419.796 194.249 413.033 192.404V192.15C413.032 190.232 413.768 188.387 415.089 186.997C416.411 185.606 418.216 184.777 420.131 184.68C421.744 184.599 423.359 184.601 424.971 184.687C426.694 184.787 428.314 185.543 429.497 186.801C430.68 188.058 431.337 189.72 431.332 191.446V192.404Z" fill="#3F3D56"/>
<path d="M428.663 199.311C424.646 199.717 420.597 199.717 416.579 199.311C415.626 199.217 414.742 198.773 414.098 198.064C413.455 197.355 413.097 196.432 413.096 195.475H432.147C432.145 196.432 431.788 197.355 431.144 198.064C430.501 198.773 429.616 199.217 428.663 199.311Z" fill="#3F3D56"/>
<path d="M419.677 187.015C419.24 187.197 418.772 187.291 418.299 187.291C417.825 187.291 417.357 187.197 416.92 187.015C417.357 186.833 417.825 186.739 418.299 186.739C418.772 186.739 419.24 186.833 419.677 187.015Z" fill="#D0CDE1"/>
<path d="M422.433 188.143C421.996 188.325 421.528 188.419 421.055 188.419C420.581 188.419 420.113 188.325 419.676 188.143C420.113 187.961 420.581 187.867 421.055 187.867C421.528 187.867 421.996 187.961 422.433 188.143Z" fill="#D0CDE1"/>
<path d="M422.685 186.137C422.248 186.319 421.78 186.413 421.306 186.413C420.833 186.413 420.365 186.319 419.928 186.137C420.365 185.955 420.833 185.861 421.306 185.861C421.78 185.861 422.248 185.955 422.685 186.137Z" fill="#D0CDE1"/>
<path d="M427.824 186.137C427.387 186.319 426.918 186.413 426.445 186.413C425.972 186.413 425.503 186.319 425.066 186.137C425.503 185.955 425.972 185.861 426.445 185.861C426.918 185.861 427.387 185.955 427.824 186.137Z" fill="#D0CDE1"/>
<path d="M426.445 187.265C426.008 187.447 425.539 187.541 425.066 187.541C424.593 187.541 424.124 187.447 423.688 187.265C424.124 187.083 424.593 186.989 425.066 186.989C425.539 186.989 426.008 187.083 426.445 187.265Z" fill="#D0CDE1"/>
<path d="M348.217 201.035C353.478 201.035 357.743 200.362 357.743 199.531C357.743 198.701 353.478 198.027 348.217 198.027C342.956 198.027 338.691 198.701 338.691 199.531C338.691 200.362 342.956 201.035 348.217 201.035Z" fill="#9F616A"/>
<path d="M343.141 198.967C344.802 198.967 346.149 198.237 346.149 197.337C346.149 196.438 344.802 195.708 343.141 195.708C341.48 195.708 340.133 196.438 340.133 197.337C340.133 198.237 341.48 198.967 343.141 198.967Z" fill="#3F3D56"/>
<path d="M342.012 198.967C343.673 198.967 345.02 198.237 345.02 197.337C345.02 196.438 343.673 195.708 342.012 195.708C340.351 195.708 339.004 196.438 339.004 197.337C339.004 198.237 340.351 198.967 342.012 198.967Z" fill="#3F3D56"/>
<path d="M355.174 199.343C356.835 199.343 358.182 198.613 358.182 197.713C358.182 196.813 356.835 196.084 355.174 196.084C353.513 196.084 352.166 196.813 352.166 197.713C352.166 198.613 353.513 199.343 355.174 199.343Z" fill="#3F3D56"/>
<path d="M348.28 198.967C349.941 198.967 351.288 198.237 351.288 197.337C351.288 196.438 349.941 195.708 348.28 195.708C346.618 195.708 345.271 196.438 345.271 197.337C345.271 198.237 346.618 198.967 348.28 198.967Z" fill="#3F3D56"/>
<path d="M353.418 198.967C355.08 198.967 356.426 198.237 356.426 197.337C356.426 196.438 355.08 195.708 353.418 195.708C351.757 195.708 350.41 196.438 350.41 197.337C350.41 198.237 351.757 198.967 353.418 198.967Z" fill="#3F3D56"/>
<path d="M357.303 196.335C351.867 198.18 345.767 198.18 339.004 196.335V196.081C339.003 194.163 339.739 192.318 341.06 190.928C342.381 189.537 344.186 188.708 346.102 188.611C347.714 188.53 349.33 188.532 350.942 188.617C352.665 188.718 354.284 189.474 355.468 190.731C356.651 191.988 357.307 193.651 357.303 195.377V196.335Z" fill="#3F3D56"/>
<path d="M354.634 203.242C350.616 203.648 346.568 203.648 342.55 203.242C341.597 203.149 340.713 202.705 340.069 201.996C339.425 201.287 339.068 200.364 339.066 199.406H358.118C358.116 200.364 357.759 201.287 357.115 201.996C356.471 202.705 355.587 203.149 354.634 203.242Z" fill="#3F3D56"/>
<path d="M345.648 190.946C345.211 191.128 344.743 191.221 344.269 191.221C343.796 191.221 343.327 191.128 342.891 190.946C343.327 190.764 343.796 190.67 344.269 190.67C344.743 190.67 345.211 190.764 345.648 190.946Z" fill="#D0CDE1"/>
<path d="M348.406 192.074C347.969 192.256 347.5 192.349 347.027 192.349C346.554 192.349 346.085 192.256 345.648 192.074C346.085 191.892 346.554 191.798 347.027 191.798C347.5 191.798 347.969 191.892 348.406 192.074Z" fill="#D0CDE1"/>
<path d="M348.656 190.068C348.219 190.25 347.75 190.343 347.277 190.343C346.804 190.343 346.335 190.25 345.898 190.068C346.335 189.886 346.804 189.792 347.277 189.792C347.75 189.792 348.219 189.886 348.656 190.068Z" fill="#D0CDE1"/>
<path d="M353.795 190.068C353.358 190.25 352.889 190.343 352.416 190.343C351.943 190.343 351.474 190.25 351.037 190.068C351.474 189.886 351.943 189.792 352.416 189.792C352.889 189.792 353.358 189.886 353.795 190.068Z" fill="#D0CDE1"/>
<path d="M352.416 191.197C351.979 191.379 351.51 191.472 351.037 191.472C350.564 191.472 350.095 191.379 349.658 191.197C350.095 191.015 350.564 190.921 351.037 190.921C351.51 190.921 351.979 191.015 352.416 191.197Z" fill="#D0CDE1"/>
<path d="M439.9 196.12L439.946 197.135L440.005 198.451C440.005 198.451 433.961 198.792 432.743 200.079C432.715 200.107 432.689 200.136 432.665 200.168L430.244 199.638L430.238 198.446C430.238 198.446 430.272 198.427 430.337 198.392C430.351 198.384 430.37 198.374 430.389 198.365C433.351 196.914 436.601 196.147 439.9 196.12Z" fill="#3F3D56"/>
<path opacity="0.1" d="M439.901 196.12L439.947 197.135C437.267 197.218 432.195 198.815 432.195 198.815L430.338 198.392C433.313 196.922 436.583 196.146 439.901 196.12Z" fill="black"/>
<path opacity="0.1" d="M430.389 198.364L432.193 198.815L432.743 200.079C432.715 200.106 432.689 200.136 432.665 200.168L430.244 199.638L430.238 198.445C430.238 198.445 430.272 198.427 430.337 198.392C430.351 198.384 430.37 198.374 430.389 198.364Z" fill="white"/>
<path d="M366.855 200.378L366.901 201.393L366.96 202.709C366.96 202.709 360.916 203.05 359.698 204.337C359.67 204.364 359.644 204.394 359.62 204.426L357.199 203.896L357.193 202.703C357.193 202.703 357.227 202.685 357.292 202.65C357.307 202.642 357.325 202.632 357.344 202.622C360.306 201.172 363.556 200.405 366.855 200.378Z" fill="#3F3D56"/>
<path opacity="0.1" d="M366.854 200.378L366.9 201.393C364.22 201.475 359.148 203.073 359.148 203.073L357.291 202.65C360.266 201.18 363.536 200.403 366.854 200.378Z" fill="black"/>
<path opacity="0.1" d="M357.344 202.623L359.148 203.074L359.698 204.337C359.67 204.365 359.644 204.395 359.62 204.427L357.199 203.897L357.193 202.704C357.193 202.704 357.227 202.685 357.292 202.65C357.307 202.643 357.325 202.633 357.344 202.623Z" fill="white"/>
<path d="M476.303 165.728C475.787 165.213 475.183 164.796 474.518 164.496V151.768C474.518 151.619 474.459 151.475 474.353 151.37C474.248 151.264 474.105 151.205 473.956 151.205H470.805C470.655 151.205 470.512 151.264 470.407 151.37C470.301 151.475 470.242 151.619 470.242 151.768V164.251C469.103 164.629 468.112 165.356 467.409 166.329C466.707 167.302 466.329 168.471 466.328 169.671V196.974C466.328 197.303 466.393 197.628 466.519 197.932C466.644 198.235 466.829 198.511 467.061 198.743C467.293 198.976 467.569 199.16 467.873 199.286C468.176 199.412 468.502 199.476 468.83 199.476H475.579C476.24 199.476 476.873 199.214 477.34 198.747C477.807 198.28 478.07 197.646 478.07 196.986V169.993C478.071 169.201 477.915 168.416 477.612 167.684C477.309 166.953 476.864 166.288 476.303 165.728Z" fill="#3F3D56"/>
<path d="M478.07 173.674H466.328V189.184H478.07V173.674Z" fill="#3F3D56"/>
<path d="M474.772 152.075H474.518V151.768C474.518 151.619 474.459 151.475 474.353 151.37C474.248 151.264 474.105 151.205 473.956 151.205H470.805C470.655 151.205 470.512 151.264 470.407 151.37C470.301 151.475 470.242 151.619 470.242 151.768V152.075H469.988V153.379H470.242V160.048H474.518V153.379H474.772V152.075Z" fill="#3F3D56"/>
<path d="M382.289 176.776C381.978 176.113 381.733 175.644 381.647 175.482C376.376 176.783 372.86 175.684 372.305 175.49C372.034 176.002 370.341 179.275 369.657 182.414C369.039 185.245 369.398 187.142 370.723 188.054L370.763 188.082L370.771 188.088C372.235 189.052 373.631 189.907 374.92 190.626C375.094 190.723 375.258 190.813 375.412 190.896L375.428 190.905L375.44 190.92C375.617 191.143 375.781 191.375 375.933 191.616C376.218 192.014 376.391 192.482 376.434 192.97V207.03L376.345 207.032C372.983 207.1 370.902 207.67 370.902 208.159C370.902 208.695 373.398 209.293 376.978 209.293C380.559 209.293 383.054 208.695 383.054 208.159C383.054 207.678 381.008 207.111 377.703 207.035L377.614 207.032L377.697 194.027C377.699 193.146 377.904 192.278 378.295 191.489C378.362 191.356 378.434 191.227 378.509 191.106C378.569 191.008 378.632 190.913 378.697 190.823L378.709 190.806L378.727 190.796C378.893 190.706 379.069 190.608 379.255 190.502L379.277 190.491C380.497 189.801 381.812 188.993 383.185 188.088C384.411 187.28 384.838 185.646 384.454 183.232C384.088 180.931 383.075 178.451 382.289 176.776Z" fill="#D0CDE1"/>
<path d="M382.603 187.793C381.163 188.742 379.974 189.454 379.065 189.967H379.064C377.738 189.876 376.406 189.914 375.087 190.079C374.155 189.558 372.898 188.812 371.351 187.793C371.336 187.783 371.322 187.774 371.307 187.763V187.762C369.888 186.786 369.853 184.72 370.315 182.606C371.489 182.476 373.361 182.533 375.876 183.431C378.855 184.495 381.972 183.894 383.779 183.347C384.076 185.211 383.895 186.941 382.603 187.793Z" fill="#3F3D56"/>
<path d="M374.042 181.842C374.268 181.842 374.45 181.659 374.45 181.434C374.45 181.209 374.268 181.026 374.042 181.026C373.817 181.026 373.635 181.209 373.635 181.434C373.635 181.659 373.817 181.842 374.042 181.842Z" fill="#3F3D56"/>
<path d="M372.9 185.592C373.125 185.592 373.308 185.409 373.308 185.184C373.308 184.959 373.125 184.776 372.9 184.776C372.675 184.776 372.492 184.959 372.492 185.184C372.492 185.409 372.675 185.592 372.9 185.592Z" fill="white"/>
<path d="M375.02 182.656C375.155 182.656 375.265 182.547 375.265 182.412C375.265 182.277 375.155 182.167 375.02 182.167C374.885 182.167 374.775 182.277 374.775 182.412C374.775 182.547 374.885 182.656 375.02 182.656Z" fill="#3F3D56"/>
<path d="M375.998 187.304C376.134 187.304 376.243 187.194 376.243 187.059C376.243 186.924 376.134 186.814 375.998 186.814C375.863 186.814 375.754 186.924 375.754 187.059C375.754 187.194 375.863 187.304 375.998 187.304Z" fill="white"/>
<path d="M374.288 187.549C374.423 187.549 374.532 187.439 374.532 187.304C374.532 187.169 374.423 187.06 374.288 187.06C374.152 187.06 374.043 187.169 374.043 187.304C374.043 187.439 374.152 187.549 374.288 187.549Z" fill="white"/>
<path d="M379.26 179.395C379.395 179.395 379.505 179.286 379.505 179.151C379.505 179.016 379.395 178.906 379.26 178.906C379.125 178.906 379.016 179.016 379.016 179.151C379.016 179.286 379.125 179.395 379.26 179.395Z" fill="#3F3D56"/>
<path d="M401.41 163.521C401.099 162.858 400.854 162.389 400.768 162.228C395.497 163.528 391.981 162.429 391.426 162.235C391.155 162.747 389.462 166.02 388.778 169.159C388.16 171.99 388.519 173.888 389.844 174.8L389.884 174.828L389.892 174.833C391.356 175.798 392.752 176.652 394.041 177.371C394.215 177.468 394.379 177.558 394.533 177.641L394.549 177.65L394.561 177.665C394.738 177.888 394.903 178.12 395.054 178.361C395.339 178.759 395.512 179.227 395.555 179.715V193.775L395.466 193.777C392.104 193.846 390.023 194.416 390.023 194.904C390.023 195.44 392.519 196.038 396.099 196.038C399.68 196.038 402.175 195.44 402.175 194.904C402.175 194.423 400.129 193.856 396.824 193.78L396.735 193.778L396.818 180.772C396.82 179.891 397.025 179.023 397.416 178.234C397.483 178.101 397.555 177.973 397.63 177.851C397.69 177.753 397.753 177.658 397.818 177.568L397.83 177.551L397.848 177.541C398.014 177.451 398.19 177.353 398.376 177.248L398.398 177.236C399.618 176.546 400.933 175.738 402.306 174.833C403.532 174.025 403.959 172.391 403.575 169.977C403.209 167.676 402.196 165.196 401.41 163.521Z" fill="#D0CDE1"/>
<path d="M401.726 174.538C400.286 175.487 399.097 176.199 398.188 176.712H398.187C396.861 176.622 395.529 176.659 394.21 176.824C393.278 176.304 392.021 175.558 390.474 174.538C390.459 174.529 390.445 174.519 390.43 174.508V174.507C389.011 173.531 388.976 171.465 389.438 169.351C390.612 169.221 392.484 169.278 394.999 170.176C397.978 171.24 401.095 170.639 402.902 170.092C403.199 171.956 403.018 173.686 401.726 174.538Z" fill="#3F3D56"/>
<path d="M393.165 168.586C393.391 168.586 393.573 168.403 393.573 168.178C393.573 167.953 393.391 167.771 393.165 167.771C392.94 167.771 392.758 167.953 392.758 168.178C392.758 168.403 392.94 168.586 393.165 168.586Z" fill="#3F3D56"/>
<path d="M392.023 172.337C392.248 172.337 392.431 172.154 392.431 171.929C392.431 171.704 392.248 171.521 392.023 171.521C391.798 171.521 391.615 171.704 391.615 171.929C391.615 172.154 391.798 172.337 392.023 172.337Z" fill="white"/>
<path d="M394.143 169.401C394.278 169.401 394.388 169.292 394.388 169.157C394.388 169.022 394.278 168.912 394.143 168.912C394.008 168.912 393.898 169.022 393.898 169.157C393.898 169.292 394.008 169.401 394.143 169.401Z" fill="#3F3D56"/>
<path d="M395.122 174.049C395.257 174.049 395.366 173.939 395.366 173.804C395.366 173.669 395.257 173.56 395.122 173.56C394.986 173.56 394.877 173.669 394.877 173.804C394.877 173.939 394.986 174.049 395.122 174.049Z" fill="white"/>
<path d="M393.409 174.294C393.544 174.294 393.653 174.184 393.653 174.049C393.653 173.914 393.544 173.805 393.409 173.805C393.274 173.805 393.164 173.914 393.164 174.049C393.164 174.184 393.274 174.294 393.409 174.294Z" fill="white"/>
<path d="M398.383 166.141C398.518 166.141 398.628 166.031 398.628 165.896C398.628 165.761 398.518 165.651 398.383 165.651C398.248 165.651 398.139 165.761 398.139 165.896C398.139 166.031 398.248 166.141 398.383 166.141Z" fill="#3F3D56"/>
</g>
<defs>
<filter id="filter0_dd" x="0.50332" y="0.54471" width="549.993" height="330.021" filterUnits="userSpaceOnUse" color-interpolation-filters="sRGB">
<feFlood flood-opacity="0" result="BackgroundImageFix"/>
<feColorMatrix in="SourceAlpha" type="matrix" values="0 0 0 0 0 0 0 0 0 0 0 0 0 0 0 0 0 0 127 0" result="hardAlpha"/>
<feOffset dy="1.04139"/>
<feGaussianBlur stdDeviation="6.24834"/>
<feColorMatrix type="matrix" values="0 0 0 0 0 0 0 0 0 0 0 0 0 0 0 0 0 0 0.08 0"/>
<feBlend mode="normal" in2="BackgroundImageFix" result="effect1_dropShadow"/>
<feColorMatrix in="SourceAlpha" type="matrix" values="0 0 0 0 0 0 0 0 0 0 0 0 0 0 0 0 0 0 127 0" result="hardAlpha"/>
<feOffset/>
<feGaussianBlur stdDeviation="0.520695"/>
<feColorMatrix type="matrix" values="0 0 0 0 0 0 0 0 0 0 0 0 0 0 0 0 0 0 0.08 0"/>
<feBlend mode="normal" in2="effect1_dropShadow" result="effect2_dropShadow"/>
<feBlend mode="normal" in="SourceGraphic" in2="effect2_dropShadow" result="shape"/>
</filter>
<linearGradient id="paint0_linear" x1="69" y1="292" x2="742.257" y2="-115.998" gradientUnits="userSpaceOnUse">
<stop stop-color="#35CC79"/>
<stop offset="1" stop-color="#347D55" stop-opacity="0.65"/>
</linearGradient>
<clipPath id="clip0">
<rect width="327" height="253.132" fill="white" transform="translate(208 39)"/>
</clipPath>
</defs>
</svg>
