<svg width="568" height="331" viewBox="0 0 568 331" fill="none" xmlns="http://www.w3.org/2000/svg">
<g filter="url(#filter0_dd)">
<rect x="13" y="12" width="525" height="305.028" rx="7.28973" fill="url(#paint0_linear)"/>
</g>
<circle cx="62" cy="268" r="25" fill="white"/>
<path d="M73 268.608L55 258.215L59.5 268.608L55 279L73 268.608Z" fill="black"/>
<g clip-path="url(#clip0)">
<path d="M478.506 260.561L476.172 253.135C476.172 253.135 474.218 247.864 474.533 245.037C474.848 242.211 473.877 239.125 473.877 239.125L475.796 229.134C475.796 229.134 475.901 228.046 475.895 226.611C475.895 224.219 475.557 220.865 473.9 219.992C471.251 218.595 465.823 206.785 464.685 206.785C463.548 206.785 459.89 206.023 459.89 204.743C459.894 204.696 459.894 204.649 459.89 204.603C459.89 204.603 459.89 204.574 459.89 204.559C459.89 204.544 459.872 204.492 459.861 204.457L459.843 204.407L459.791 204.291L459.773 204.259C459.63 204.005 459.453 203.772 459.245 203.567C464.186 202.625 469.104 201.59 473.987 200.385H473.807L473.987 200.341C473.339 200.334 472.691 200.29 472.048 200.207L471.905 200.239C464.723 199.259 458.268 193.644 456.512 186.529C454.564 178.654 457.97 170.434 457.819 162.319C457.714 157.184 456.188 152.178 453.411 147.857C453.038 147.273 452.641 146.713 452.227 146.165C453.665 145.466 454.935 144.464 455.95 143.229C456.965 141.993 457.7 140.552 458.105 139.005C458.511 137.458 458.577 135.842 458.299 134.267C458.021 132.693 457.405 131.197 456.495 129.883C456.369 129.702 456.238 129.527 456.104 129.355C457.405 131.513 457.934 134.049 457.604 136.547C457.274 139.046 456.106 141.358 454.289 143.105C454.991 141.83 455.434 140.427 455.591 138.98C455.748 137.533 455.616 136.068 455.204 134.672C454.792 133.276 454.107 131.975 453.188 130.845C452.27 129.715 451.137 128.778 449.855 128.088C448.573 127.399 447.166 126.971 445.717 126.828C444.268 126.685 442.805 126.831 441.413 127.257C440.021 127.683 438.727 128.381 437.606 129.311C436.485 130.24 435.56 131.382 434.883 132.671C434.647 132.566 434.41 132.461 434.174 132.365C434.909 130.353 436.215 128.598 437.932 127.317C439.649 126.036 441.703 125.283 443.841 125.151C443.622 125.137 443.406 125.131 443.185 125.131C441.012 125.134 438.889 125.78 437.084 126.987C435.278 128.195 433.87 129.909 433.037 131.916C429.735 130.705 426.29 130.203 422.9 131.064C422.27 131.223 421.655 131.437 421.063 131.703L421.214 131.583C420.373 131.938 419.597 132.431 418.919 133.042C417.903 133.978 417.189 135.191 416.328 136.276C415.451 137.359 414.413 138.302 413.251 139.071C413.347 139.024 413.443 138.969 413.543 138.919C409.634 141.684 404.322 142.481 399.853 140.701C398.599 140.2 397.389 139.514 396.061 139.33C395.04 139.204 394.003 139.355 393.06 139.768C393.101 139.736 393.139 139.701 393.182 139.669C391.949 140.176 390.864 140.989 390.032 142.032C388.574 143.831 387.842 146.115 387.319 148.364C386.931 149.961 386.736 151.598 386.736 153.241C386.756 155.347 387.229 157.38 388.486 159.029C390.435 161.555 393.095 162.237 395.872 162.692C395.79 162.984 395.711 163.252 395.641 163.538C394.048 169.84 394.963 176.514 398.194 182.154C401.424 187.794 406.718 191.961 412.959 193.775L413.499 194.691L413.674 194.732C414.966 196.917 416.381 199.37 417.693 201.732C417.763 201.858 417.831 201.983 417.901 202.106L415.418 203.383C414.768 203.719 413.152 204.597 412.256 205.46C411.998 205.684 411.797 205.967 411.673 206.286C411.294 207.558 409.275 210.86 407.881 211.746C406.487 212.633 405.355 216.953 405.483 219.234C405.612 221.515 404.725 221.276 402.452 221.398C400.18 221.521 402.452 224.826 402.452 224.826L402.511 225.048C402.406 225.228 402.286 225.424 402.155 225.631C401.572 226.526 400.804 227.518 400.244 227.466C399.232 227.369 398.602 229.846 398.666 230.225C398.73 230.604 396.899 233.652 396.204 233.97C395.51 234.288 392.544 234.895 393.363 237.736L389.764 241.4L386.847 244.194C386.847 244.194 382.681 241.843 375.926 249.153C376.679 249.082 377.439 249.153 378.166 249.363L377.974 249.456C376.194 250.299 373.114 251.737 370.836 252.665L358.704 253.041V243.999C358.704 243.999 357.631 241.461 356.371 243.999L356.053 253.135L329.684 253.989L334.625 248.739L334.689 248.669C335.218 248.107 335.587 247.414 335.758 246.662C335.928 245.909 335.895 245.125 335.66 244.39L315.044 179.584L314.901 179.129C314.698 178.489 314.318 177.919 313.804 177.486C313.29 177.053 312.664 176.776 311.998 176.685L283.36 172.82L283.162 172.794L280.53 173.508C280.2 173.598 279.891 173.753 279.622 173.964C279.352 174.175 279.127 174.437 278.959 174.736C278.792 175.035 278.686 175.364 278.647 175.704C278.609 176.044 278.638 176.388 278.734 176.717C279.41 179.05 280.522 182.86 281.942 187.647H277.987L281.018 213.806L282.864 223.869C283.337 226.436 283.888 228.987 284.518 231.523C286.038 237.649 289.045 250.714 289.112 258.292L266.943 282.462V287.371H408.546C408.552 287.387 408.56 287.403 408.569 287.417H477.558C477.558 287.417 476.802 286.084 478.433 284.18C480.063 282.275 479.255 274.72 479.255 274.72C479.255 274.72 478.339 273.512 479.46 270.846C480.58 268.18 478.506 260.561 478.506 260.561ZM302.559 254.859L298.796 254.981L295.296 232.212C297.889 240.531 300.404 248.447 302.559 254.859ZM399.454 268.697L397.012 263.714C397.571 263.74 398.124 263.592 398.596 263.291C400.174 262.148 401.119 259.482 401.119 259.482L405.355 254.45L405.705 254.03C406.562 256.425 407.572 258.315 408.38 259.228C410.398 261.515 410.652 268.116 411.273 270.528C411.895 272.941 411.41 271.926 411.273 273.323C411.254 273.664 411.282 274.007 411.358 274.341C408.566 271.345 404.596 268.621 399.454 268.697Z" fill="url(#paint1_linear)"/>
<path d="M268.369 282.559L293.265 255.574L392.149 252.392L409.412 287.418H268.369V282.559Z" fill="#514E7F"/>
<path opacity="0.2" d="M268.369 282.559L293.265 255.574L392.149 252.392L409.412 287.418H268.369V282.559Z" fill="black"/>
<path d="M397.179 280.307V281.24C397.179 281.723 396.987 282.186 396.646 282.527C396.305 282.869 395.842 283.06 395.359 283.06H342.207C341.2 283.06 342.207 281.051 342.207 281.051L341.606 267.887C341.583 267.386 341.734 266.894 342.033 266.492C342.331 266.09 342.76 265.804 343.245 265.681C346.203 264.935 348.239 266.133 348.239 266.133L381.165 265.296C381.847 265.262 382.531 265.295 383.207 265.393C384.402 265.551 385.553 265.95 386.59 266.564C387.627 267.179 388.529 267.997 389.242 268.969L396.809 279.228C397.045 279.538 397.175 279.917 397.179 280.307Z" fill="#514E7F"/>
<path opacity="0.1" d="M397.178 281.239C397.178 281.722 396.986 282.185 396.644 282.526C396.303 282.868 395.84 283.06 395.357 283.06H342.205C341.199 283.06 342.205 281.05 342.205 281.05C342.205 281.05 345.14 279.626 349.497 279.883L388.293 279.043C388.293 279.043 392.875 279.148 395.556 279.44C396 279.488 396.411 279.698 396.71 280.03C397.01 280.362 397.176 280.792 397.178 281.239Z" fill="black"/>
<path d="M382.092 267.557H348.74L349.662 277.699L388.294 277.028L382.092 267.557Z" fill="#3F3D56"/>
<path d="M325.53 274.679V278.2L290.588 279.618C290.588 279.618 282.598 279.072 281.618 274.163C281.54 273.65 281.55 273.127 281.648 272.617C282 270.549 283.774 266.938 291.591 265.269L301.217 264.28H322.68C322.68 264.28 325.451 267.054 325.53 274.679Z" fill="#514E7F"/>
<path opacity="0.1" d="M325.53 274.79V278.2L290.588 279.618C290.588 279.618 282.598 279.072 281.618 274.163C281.54 273.65 281.55 273.127 281.648 272.617C281.648 272.617 286.478 277.185 293.024 276.514L323.78 275.175C324.369 275.077 324.954 274.949 325.53 274.79Z" fill="black"/>
<path opacity="0.1" d="M298.799 271.245C304.725 270.94 309.486 269.868 309.433 268.851C309.381 267.835 304.535 267.258 298.61 267.563C292.684 267.869 287.923 268.94 287.976 269.957C288.028 270.974 292.874 271.551 298.799 271.245Z" fill="black"/>
<path d="M302.115 268.534L296.462 271.328L290.448 269.905L290.418 260.101C290.801 252.946 287.502 238.624 285.871 232.133C285.243 229.625 284.693 227.097 284.223 224.549L282.374 214.588L279.363 188.703H286.527L290.739 194.735L302.115 268.534Z" fill="#514E7F"/>
<path d="M302.115 268.534L296.462 271.328L292.857 250.39C292.927 246.823 288.455 229.887 288.163 229.19C284.599 220.682 281.545 188.715 281.545 188.715H286.53L290.739 194.735L302.115 268.534Z" fill="#514E7F"/>
<path opacity="0.15" d="M302.115 268.534L296.462 271.328L292.857 250.39C292.927 246.823 288.455 229.887 288.163 229.19C284.599 220.682 281.545 188.715 281.545 188.715H286.53L290.739 194.735L302.115 268.534Z" fill="black"/>
<path d="M335.815 249.113L316.563 269.4L314.306 269.561L311.555 269.759C310.919 269.805 310.284 269.653 309.736 269.325C309.189 268.997 308.757 268.507 308.498 267.924C302.664 254.798 284.013 191.329 280.087 177.884C279.992 177.558 279.962 177.216 280.001 176.879C280.039 176.541 280.145 176.214 280.312 175.918C280.478 175.622 280.702 175.362 280.971 175.154C281.239 174.945 281.547 174.793 281.875 174.705L284.5 173.999L284.696 174.022L312.742 177.785C313.544 177.893 314.298 178.226 314.917 178.746C315.537 179.265 315.996 179.949 316.243 180.72L336.772 244.872C337.007 245.6 337.042 246.377 336.874 247.123C336.705 247.869 336.34 248.557 335.815 249.113Z" fill="#514E7F"/>
<path opacity="0.1" d="M335.815 249.113L316.563 269.4L314.306 269.561L311.555 269.759C310.919 269.805 310.284 269.653 309.736 269.325C309.189 268.997 308.757 268.507 308.498 267.924C302.664 254.798 284.013 191.329 280.087 177.884C279.992 177.558 279.962 177.216 280.001 176.879C280.039 176.541 280.145 176.214 280.312 175.918C280.478 175.622 280.702 175.362 280.971 175.154C281.239 174.945 281.547 174.793 281.875 174.705L284.5 173.999L284.696 174.022L312.742 177.785C313.544 177.893 314.298 178.226 314.917 178.746C315.537 179.265 315.996 179.949 316.243 180.72L336.772 244.872C337.007 245.6 337.042 246.377 336.874 247.123C336.705 247.869 336.34 248.557 335.815 249.113Z" fill="black"/>
<path d="M335.748 249.182L316.563 269.408L314.305 269.569L285.515 177.393C285.025 176.335 284.75 175.19 284.707 174.024L313.223 177.851C313.884 177.94 314.506 178.215 315.018 178.643C315.529 179.072 315.908 179.637 316.111 180.272L336.754 244.78C336.996 245.537 337.03 246.345 336.853 247.119C336.676 247.893 336.294 248.606 335.748 249.182Z" fill="#514E7F"/>
<path d="M334.341 245.782C334.131 246.139 333.869 246.463 333.566 246.744L314.678 264.304L288.91 178.899L313.655 181.35C314.511 181.434 315.323 181.771 315.987 182.318C316.652 182.865 317.138 183.597 317.385 184.421L334.767 242.302C334.941 242.88 334.993 243.488 334.92 244.087C334.847 244.686 334.65 245.263 334.341 245.782Z" fill="#3F3D56"/>
<path opacity="0.1" d="M334.341 245.782L313.654 181.35C314.511 181.434 315.323 181.771 315.987 182.318C316.651 182.865 317.138 183.597 317.385 184.421L334.767 242.302C334.941 242.88 334.993 243.488 334.92 244.087C334.846 244.686 334.649 245.263 334.341 245.782Z" fill="black"/>
<path d="M445.264 150.34C451.313 150.34 456.217 145.436 456.217 139.387C456.217 133.337 451.313 128.434 445.264 128.434C439.214 128.434 434.311 133.337 434.311 139.387C434.311 145.436 439.214 150.34 445.264 150.34Z" fill="#945B79"/>
<path d="M434.196 137.761C434.196 134.969 435.262 132.282 437.176 130.249C439.091 128.217 441.709 126.992 444.496 126.826C444.28 126.826 444.064 126.805 443.846 126.805C442.392 126.781 440.948 127.047 439.598 127.587C438.249 128.127 437.02 128.93 435.983 129.95C434.947 130.969 434.124 132.185 433.562 133.526C433 134.867 432.711 136.306 432.711 137.76C432.711 139.214 433 140.653 433.562 141.994C434.124 143.335 434.947 144.55 435.983 145.57C437.02 146.589 438.249 147.392 439.598 147.932C440.948 148.472 442.392 148.738 443.846 148.714C444.064 148.714 444.28 148.714 444.496 148.694C441.709 148.527 439.092 147.303 437.177 145.271C435.263 143.239 434.197 140.553 434.196 137.761Z" fill="#945B79"/>
<path opacity="0.1" d="M435.615 139.387C435.616 136.594 436.683 133.907 438.598 131.875C440.514 129.843 443.133 128.619 445.921 128.454C445.705 128.454 445.486 128.434 445.267 128.434C442.393 128.48 439.652 129.655 437.636 131.705C435.62 133.754 434.49 136.513 434.49 139.388C434.49 142.263 435.62 145.022 437.636 147.072C439.652 149.121 442.393 150.296 445.267 150.343C445.486 150.343 445.705 150.343 445.921 150.319C443.133 150.155 440.513 148.931 438.597 146.899C436.682 144.867 435.615 142.18 435.615 139.387Z" fill="black"/>
<path d="M388.888 262.198C387.865 262.738 386.811 263.219 385.732 263.636C382.914 264.744 378.62 266.016 374.621 265.529C367.898 264.712 363.875 266.912 363.875 266.912L362.367 255.725C362.367 255.725 367.326 254.267 369.342 253.902C370.853 253.611 376.304 251.099 378.921 249.865C379.796 249.457 380.341 249.188 380.341 249.188H385.37L388.888 262.198Z" fill="#FFC1C7"/>
<path opacity="0.1" d="M388.889 262.198C387.866 262.738 386.812 263.219 385.733 263.636C385.392 253.675 381.57 250.717 378.922 249.865C379.797 249.457 380.342 249.188 380.342 249.188H385.371L388.889 262.198Z" fill="black"/>
<path d="M407.493 228.764V253.267L406.178 254.824L401.963 259.812C401.963 259.812 401.02 262.438 399.448 263.581C397.876 264.724 394.291 263.205 394.291 263.205L393.285 264.838C393.285 264.838 391.024 265.279 389.957 264.838C388.889 264.398 386.246 266.095 386.246 266.095C386.625 248.121 376.883 249.568 376.883 249.568C383.606 242.34 387.754 244.665 387.754 244.665L390.648 241.899L394.23 238.271C393.413 235.462 396.365 234.861 397.056 234.546C397.748 234.231 399.571 231.215 399.509 230.838C399.448 230.462 400.072 228.009 401.079 228.105C401.639 228.158 402.406 227.175 402.984 226.291C403.444 225.579 403.783 224.932 403.783 224.932L407.493 228.764Z" fill="#FF6584"/>
<path d="M416.193 204.271L423.602 200.479L423.182 204.921L424.641 209.384C424.641 209.384 423.302 212.84 423.136 213.217C422.969 213.593 419.784 221.472 419.784 221.472L417.229 218.246L416.193 204.271Z" fill="#FF6584"/>
<path opacity="0.1" d="M417.232 218.246L416.193 204.271L423.602 200.481" fill="black"/>
<path d="M448.03 200.106C448.03 200.106 445.568 203.647 442.196 208.159C434.35 218.66 421.585 234.412 423.528 222.983C423.592 222.61 423.642 222.236 423.685 221.86C423.207 222.181 422.11 221.901 420.914 221.332L420.833 221.294C420.243 221.005 419.673 220.676 419.129 220.308C419.068 220.27 419.009 220.229 418.951 220.189C417.624 219.264 416.562 218.182 416.618 217.435C417.56 201.03 421.378 208.853 422.451 210.674C422.512 210.801 422.595 210.917 422.696 211.015C422.65 210.887 422.597 210.752 422.539 210.612C421.786 208.766 420.348 206.007 418.706 203.057V203.028L418.487 202.637C417.122 200.202 415.643 197.655 414.313 195.421L413.954 194.82C411.854 191.296 410.221 188.668 410.221 188.668C410.221 188.668 419.762 179.941 427.804 174.638C434.513 170.207 440.195 168.162 438.378 175.595C437.211 180.372 437.552 184.459 438.629 187.846C438.667 187.971 438.707 188.097 438.751 188.219C438.967 188.864 439.217 189.498 439.498 190.118C439.879 190.972 440.316 191.8 440.805 192.597C442.635 195.598 445.101 198.161 448.03 200.106Z" fill="#FFC1C7"/>
<path opacity="0.15" d="M433.197 186.859C428.673 191.774 427.711 196.485 420.503 196.485C418.406 196.486 416.317 196.222 414.287 195.697C412.015 191.876 410.203 188.945 410.203 188.945C410.203 188.945 442.354 159.545 438.36 175.871C437.141 180.803 432.028 183.388 433.197 186.859Z" fill="black"/>
<path d="M445.264 170.945C445.264 175.843 443.811 180.631 441.09 184.704C438.369 188.776 434.501 191.95 429.976 193.825C425.45 195.699 420.471 196.189 415.667 195.233C410.863 194.278 406.45 191.919 402.987 188.455C399.523 184.991 397.165 180.578 396.21 175.774C395.255 170.97 395.745 165.991 397.62 161.466C399.495 156.94 402.67 153.073 406.743 150.352C410.816 147.631 415.604 146.179 420.502 146.18C423.758 146.166 426.985 146.796 429.996 148.036C433.006 149.276 435.742 151.099 438.044 153.402C440.346 155.704 442.17 158.44 443.409 161.451C444.648 164.462 445.279 167.689 445.264 170.945Z" fill="#FFC1C7"/>
<path opacity="0.1" d="M419.937 213.806C419.937 213.806 420.377 220.844 424.84 220.278C429.303 219.712 425.908 235.236 425.908 235.236L420.949 239.761L415.599 241.406C415.599 241.406 410.886 240.023 410.95 239.769C411.014 239.516 412.834 224.814 412.834 224.814L415.599 216.956L419.937 213.806Z" fill="black"/>
<path d="M419.937 214.308C419.937 214.308 420.377 221.346 424.84 220.783C429.303 220.22 425.908 235.741 425.908 235.741L420.949 240.265L415.605 241.899C415.605 241.899 410.892 240.516 410.956 240.265C411.02 240.015 412.84 225.307 412.84 225.307L415.605 217.452L419.937 214.308Z" fill="#514E7F"/>
<path opacity="0.1" d="M407.492 228.764V253.267L406.177 254.824C404.82 251.225 403.788 246.345 404.426 241.958C405.258 236.141 403.601 228.697 403 226.285C403.461 225.573 403.799 224.926 403.799 224.926L407.492 228.764Z" fill="black"/>
<path opacity="0.1" d="M420.502 215.063C420.342 216.444 419.984 217.794 419.437 219.071C419.274 219.459 419.107 219.835 418.941 220.188C417.614 219.264 416.552 218.181 416.608 217.435C417.55 201.03 421.368 208.853 422.441 210.673C421.916 211.07 420.744 212.237 420.502 215.063Z" fill="black"/>
<path opacity="0.1" d="M422.524 210.612C421.737 208.678 420.191 205.741 418.461 202.637L418.68 202.526L422.682 210.513C422.626 210.54 422.573 210.573 422.524 210.612Z" fill="black"/>
<path opacity="0.1" d="M448.03 200.105C448.03 200.105 420.753 239.323 423.527 222.982C423.591 222.609 423.641 222.236 423.685 221.859C423.195 222.186 422.06 221.889 420.832 221.294C421.019 220.203 421.124 219.456 421.124 219.456L424.143 210.915C424.143 210.915 425.893 204.127 425.651 202.748L425.732 202.692L440.743 192.614H440.758C442.603 195.614 445.086 198.171 448.03 200.105Z" fill="black"/>
<path d="M476.311 229.771L474.173 240.823L467.756 287.456H412.083C412.083 287.456 413.087 279.289 413.087 278.029C413.087 276.768 411.958 274.887 412.083 273.504C412.209 272.122 412.69 273.125 412.083 270.739C411.477 268.353 411.208 261.813 409.204 259.553C407.2 257.292 403.916 248.991 404.917 241.964C405.917 234.937 403.28 225.498 403.28 225.498C403.28 225.498 401.019 222.228 403.28 222.102C405.541 221.977 406.425 222.216 406.299 219.961C406.174 217.706 407.303 213.43 408.685 212.549C410.068 211.668 412.081 208.401 412.457 207.144C412.582 206.828 412.782 206.547 413.04 206.325C414.172 205.239 416.473 204.128 416.473 204.128L418.673 203.028V203.058L422.663 211.015C422.663 211.015 420.796 211.922 420.484 215.565C420.325 216.946 419.967 218.296 419.42 219.573C419.315 219.824 419.209 220.072 419.102 220.308C418.781 221.02 418.454 221.65 418.177 222.152C417.766 222.896 417.471 223.354 417.471 223.354C417.471 223.354 417.363 224.205 417.2 225.395C416.864 227.84 416.298 231.714 415.963 232.641C415.671 233.464 415.088 234.878 414.764 236.141C414.56 236.932 414.443 237.664 414.551 238.142C414.551 238.18 414.569 238.218 414.58 238.253C414.957 239.42 416.841 234.403 416.841 234.403C416.841 234.403 418.224 230.13 418.854 230.13C419.335 230.13 420.417 224.097 420.895 221.315C421.035 220.483 421.12 219.944 421.12 219.944L424.139 211.4C424.139 211.4 424.556 209.787 424.956 207.973C425.376 206.065 425.776 203.938 425.647 203.23L425.729 203.174L440.739 193.096H440.754L440.984 192.942H440.961C440.856 192.942 440.553 192.755 439.972 191.39C439.823 191.043 439.657 190.623 439.473 190.103C439.473 190.103 444.275 188.175 445.987 189.587C446.098 189.676 446.196 189.78 446.279 189.896C446.327 189.961 446.369 190.03 446.404 190.103C447.536 192.437 448.038 194.187 449.169 195.698C449.292 195.859 449.424 196.012 449.566 196.156C450.934 197.588 453.65 199.266 453.192 199.721C452.69 200.222 456.963 202.346 456.963 202.346C456.963 202.346 459.463 203.775 460.248 204.971C460.385 205.156 460.466 205.377 460.481 205.607C460.481 206.864 464.127 207.617 465.259 207.617C466.391 207.617 471.796 219.308 474.433 220.69C477.07 222.073 476.311 229.771 476.311 229.771Z" fill="#FF6584"/>
<g opacity="0.1">
<path opacity="0.1" d="M419.916 211.014C419.916 211.014 418.049 211.921 417.737 215.564C417.578 216.945 417.219 218.296 416.669 219.572C416.304 220.454 415.89 221.315 415.429 222.151C415.018 222.895 414.724 223.353 414.724 223.353C414.724 223.353 414.616 224.204 414.452 225.394C414.126 227.859 413.542 231.733 413.213 232.655C412.921 233.477 412.338 234.892 412.014 236.155C411.81 236.946 411.693 237.678 411.801 238.156C411.801 238.194 411.818 238.232 411.83 238.267C412.206 239.434 414.091 234.417 414.091 234.417C414.091 234.417 415.473 230.143 416.103 230.143C416.281 230.143 416.544 229.309 416.827 228.119C416.97 227.165 417.118 226.211 417.215 225.412C417.378 224.216 417.486 223.37 417.486 223.37C417.486 223.37 417.652 223.113 417.909 222.67C418.177 221.133 418.364 219.972 418.364 219.972L421.383 211.428C421.383 211.428 421.602 210.576 421.876 209.418L418.667 203.039L416.468 204.139L419.916 211.014Z" fill="black"/>
<path opacity="0.1" d="M474.425 220.719C471.8 219.336 466.383 207.645 465.251 207.645C464.119 207.645 460.473 206.893 460.473 205.635C460.473 204.378 456.955 202.366 456.955 202.366C456.955 202.366 452.682 200.23 453.184 199.74C453.636 199.285 450.926 197.608 449.558 196.176C449.417 196.031 449.285 195.878 449.161 195.718C448.03 194.207 447.528 192.448 446.396 190.123C446.361 190.05 446.319 189.979 446.271 189.913C446.187 189.798 446.089 189.694 445.979 189.604C445.209 188.971 443.82 189.021 442.52 189.248C442.771 189.322 443.007 189.443 443.214 189.604C443.324 189.694 443.422 189.798 443.505 189.913C443.553 189.979 443.595 190.05 443.631 190.123C444.763 192.457 445.264 194.207 446.396 195.718C446.521 195.874 446.654 196.023 446.796 196.164C448.164 197.596 450.879 199.274 450.421 199.729C449.92 200.23 454.193 202.354 454.193 202.354C454.193 202.354 457.711 204.367 457.711 205.624C457.711 206.881 461.357 207.634 462.489 207.634C463.621 207.634 469.026 219.325 471.663 220.707C474.3 222.09 473.55 229.75 473.55 229.75L471.409 240.822L464.992 287.455H467.757L474.174 240.822L476.312 229.761C476.312 229.761 477.065 222.102 474.425 220.719Z" fill="black"/>
</g>
<path d="M364.654 255.953C364.654 255.953 348.666 251.327 347.534 258.43C346.403 265.532 354.071 269.616 358.972 269.491C363.872 269.365 366.01 264.713 366.01 264.713L364.654 255.953Z" fill="#FFC1C7"/>
<path d="M444.824 277.786C444.824 277.786 441.242 280.362 433.638 280.362C426.033 280.362 417.172 281.995 417.172 281.995C417.172 281.995 405.86 255.349 383.172 278.16C383.172 278.16 379.088 283.439 400.265 283.993C400.265 283.993 407.744 283.743 409.378 287.45H451.673L457.457 283.118L444.824 277.786Z" fill="#FFC1C7"/>
<path d="M359.728 244.475C359.728 244.475 358.66 241.963 357.394 244.475L356.709 263.96L358.214 268.548L359.719 264.464L359.728 244.475Z" fill="#514E7F"/>
<path opacity="0.1" d="M446.271 189.905C444.078 190.652 441.671 192.402 440.962 192.95C440.831 192.95 440.379 192.658 439.475 190.112C439.472 190.112 444.9 187.933 446.271 189.905Z" fill="black"/>
<path d="M422.682 211.015C422.682 211.015 420.815 211.922 420.503 215.565C420.344 216.946 419.986 218.296 419.439 219.573L418.21 222.155L417.233 225.404L417.335 232.02L414.78 236.156L414.567 238.157L413.905 244.347L410.51 242.713C410.51 242.713 411.91 232.731 412.96 230.71C414.01 228.689 415.413 217.983 415.413 217.983C415.413 217.983 415.349 214.054 415.854 213.363C416.358 212.672 414.979 212.797 414.847 211.353C414.771 210.496 413.815 208.115 413.048 206.322C414.179 205.236 416.481 204.125 416.481 204.125L418.68 203.025L422.682 211.015Z" fill="#FF6584"/>
<path opacity="0.1" d="M422.682 211.015C422.682 211.015 420.815 211.922 420.503 215.565C420.344 216.946 419.986 218.296 419.439 219.573L418.21 222.155L417.233 225.404L417.335 232.02L414.78 236.156L414.567 238.157L413.905 244.347L410.51 242.713C410.51 242.713 411.91 232.731 412.96 230.71C414.01 228.689 415.413 217.983 415.413 217.983C415.413 217.983 415.349 214.054 415.854 213.363C416.358 212.672 414.979 212.797 414.847 211.353C414.771 210.496 413.815 208.115 413.048 206.322C414.179 205.236 416.481 204.125 416.481 204.125L418.68 203.025L422.682 211.015Z" fill="black"/>
<path opacity="0.1" d="M449.558 196.67C446.755 198.962 439.217 205.467 438.351 209.889C437.284 215.341 434.078 214.813 434.078 214.813C430.073 206.126 427.316 203.997 425.738 203.696L440.749 193.616C440.749 193.616 440.749 193.616 440.763 193.616L440.994 193.461H440.962C440.857 193.461 440.553 193.277 439.973 191.912L445.988 190.106C446.099 190.195 446.197 190.299 446.279 190.416C446.327 190.481 446.369 190.55 446.405 190.623C447.537 192.956 448.038 194.706 449.17 196.217C449.291 196.375 449.42 196.526 449.558 196.67Z" fill="black"/>
<path d="M449.558 196.165C446.755 198.457 439.217 204.965 438.351 209.387C437.284 214.836 434.078 214.308 434.078 214.308C430.073 205.624 427.316 203.486 425.738 203.195L440.749 193.117H440.763L440.994 192.962H440.962C440.857 192.962 440.553 192.775 439.973 191.41L445.988 189.607C446.099 189.696 446.197 189.8 446.279 189.917C446.328 189.981 446.37 190.051 446.405 190.124C447.537 192.457 448.038 194.207 449.17 195.718C449.29 195.875 449.42 196.024 449.558 196.165Z" fill="#FF6584"/>
<path opacity="0.1" d="M432.57 240.202C432.757 240.141 442.552 234.595 441.426 238.813C440.3 243.031 432.57 240.202 432.57 240.202Z" fill="black"/>
<path opacity="0.1" d="M390.207 245.513C390.207 245.513 395.358 253.526 397.181 253.275C399.004 253.024 390.207 245.513 390.207 245.513Z" fill="black"/>
<path opacity="0.1" d="M396.625 242.529C396.625 242.529 396.94 248.751 399.644 249.189C402.348 249.626 396.625 242.529 396.625 242.529Z" fill="black"/>
<path opacity="0.1" d="M425.211 262.513C425.211 262.513 431.611 273.16 430.365 276.844L425.211 262.513Z" fill="black"/>
<path opacity="0.1" d="M432.631 263.771C432.631 263.771 441.288 275.147 439.789 276.089C438.29 277.031 432.631 263.771 432.631 263.771Z" fill="black"/>
<path opacity="0.1" d="M413.166 245.513C413.166 245.513 412.276 253.601 415.616 255.952L413.166 245.513Z" fill="black"/>
<path opacity="0.1" d="M451.991 209.533C451.991 209.533 437.17 221.034 439.545 232.976C441.919 244.918 444.212 245.796 444.212 245.796C444.212 245.796 445.087 250.571 446.726 252.584C448.366 254.596 448.109 255.915 448.109 255.915C448.109 255.915 449.617 255.224 450.119 258.68C450.62 262.137 453.26 264.587 453.26 264.587C453.26 264.587 454.135 267.352 451.878 268.86C449.62 270.368 450.127 272.005 450.127 272.005L440.951 277.346L451.172 287.465H477.57C477.57 287.465 476.814 286.146 478.445 284.256C480.076 282.366 479.265 274.893 479.265 274.893C479.265 274.893 478.352 273.697 479.469 271.057C480.586 268.417 478.509 260.877 478.509 260.877L476.176 253.523C476.176 253.523 474.227 248.308 474.542 245.51C474.857 242.713 473.9 239.656 473.9 239.656L468.834 223.671C468.834 223.671 469.085 207.71 451.991 209.533Z" fill="black"/>
<path d="M452.493 209.533C452.493 209.533 437.661 221.034 440.049 232.976C442.438 244.918 444.699 245.796 444.699 245.796C444.699 245.796 445.574 250.571 447.213 252.584C448.853 254.596 448.596 255.915 448.596 255.915C448.596 255.915 450.104 255.224 450.609 258.68C451.113 262.137 453.75 264.587 453.75 264.587C453.75 264.587 454.625 267.352 452.368 268.86C450.11 270.368 450.618 272.005 450.618 272.005L441.441 277.346L451.685 287.465H478.08C478.08 287.465 477.328 286.146 478.956 284.256C480.583 282.366 479.772 274.893 479.772 274.893C479.772 274.893 478.859 273.697 479.976 271.057C481.094 268.417 479.017 260.877 479.017 260.877L476.683 253.523C476.683 253.523 474.735 248.308 475.05 245.51C475.365 242.713 474.402 239.656 474.402 239.656L469.336 223.671C469.336 223.671 469.586 207.71 452.493 209.533Z" fill="#FF6584"/>
<path opacity="0.1" d="M457.457 217.639C457.457 217.639 468.016 221.221 470.843 222.983C473.669 224.745 466.695 216.006 457.457 217.639Z" fill="black"/>
<path opacity="0.1" d="M462.988 272.005C462.988 272.005 478.008 273.889 477.132 276.844C476.257 279.799 462.988 272.005 462.988 272.005Z" fill="black"/>
<path opacity="0.1" d="M460.045 275.208C460.045 275.208 471.033 278.729 469.087 281.625C467.142 284.522 460.045 275.208 460.045 275.208Z" fill="black"/>
<path opacity="0.1" d="M460.239 205C454.245 206.167 448.221 207.164 442.195 208.159L440.625 208.418C437.312 208.964 433.978 209.512 430.617 209.495C428.981 209.495 427.295 209.326 425.842 208.567C425.532 208.403 425.239 208.207 424.967 207.984C423.949 207.167 423.217 205.98 423.235 204.691C423.252 202.34 425.484 200.709 427.403 199.35C430.212 197.357 432.986 194.828 434.071 191.652C434.278 191.056 434.419 190.44 434.494 189.814C434.815 187.116 433.832 184.453 432.785 181.939C431.641 179.211 430.072 176.28 427.779 174.623C426.851 173.941 425.767 173.502 424.626 173.348C421.102 172.881 417.768 175.39 414.218 175.25C411.334 175.125 408.883 173.272 407.148 171.093C405.885 169.507 405.085 167.383 403.184 166.441C401.124 165.417 398.782 165.175 396.492 164.834C397.423 161.174 399.179 157.776 401.625 154.9C404.07 152.023 407.141 149.744 410.603 148.236C414.065 146.728 417.826 146.032 421.598 146.2C425.37 146.369 429.053 147.398 432.367 149.208C435.68 151.019 438.536 153.563 440.715 156.647C442.895 159.73 444.34 163.271 444.941 166.999C445.542 170.727 445.283 174.542 444.183 178.154C443.083 181.767 441.172 185.079 438.595 187.839C438.633 187.965 438.674 188.09 438.718 188.213C438.934 188.858 439.183 189.492 439.464 190.112C439.464 190.112 444.266 188.184 445.978 189.595C446.089 189.684 446.187 189.789 446.27 189.905C446.318 189.969 446.36 190.039 446.395 190.112C447.527 192.445 448.029 194.195 449.16 195.706C449.283 195.867 449.415 196.02 449.557 196.164C450.925 197.597 453.641 199.274 453.183 199.729C452.681 200.231 456.954 202.354 456.954 202.354C456.954 202.354 459.454 203.798 460.239 205Z" fill="black"/>
<path d="M389.375 160.371C387.141 157.489 387.383 153.417 388.208 149.87C388.728 147.633 389.466 145.384 390.912 143.602C392.359 141.819 394.637 140.571 396.915 140.88C398.248 141.061 399.453 141.741 400.707 142.237C406.337 144.465 413.32 142.613 417.106 137.884C417.964 136.814 418.673 135.612 419.688 134.676C420.825 133.695 422.185 133.009 423.649 132.678C429.985 131.079 436.519 134.227 441.938 137.876C446.564 140.991 450.963 144.628 454 149.304C456.759 153.577 458.274 158.533 458.375 163.618C458.53 171.668 455.134 179.789 457.077 187.601C458.994 195.316 466.528 201.255 474.477 201.31C463.562 203.988 452.46 205.823 441.372 207.652C438.056 208.2 434.725 208.748 431.364 208.728C429.728 208.728 428.039 208.559 426.589 207.8C425.14 207.042 423.964 205.569 423.964 203.933C423.982 201.579 426.216 199.951 428.132 198.592C431.464 196.229 434.745 193.111 435.226 189.056C435.547 186.358 434.564 183.692 433.514 181.181C431.913 177.359 429.471 173.127 425.364 172.578C421.843 172.109 418.507 174.62 414.957 174.477C412.075 174.352 409.622 172.5 407.886 170.321C406.623 168.734 405.824 166.61 403.925 165.668C399.231 163.346 393.039 165.094 389.375 160.371Z" fill="#945B79"/>
<path d="M453.571 145.687C455.864 144.095 457.463 141.687 458.041 138.956C458.619 136.225 458.132 133.376 456.68 130.991C456.814 131.16 456.943 131.335 457.068 131.513C457.915 132.694 458.518 134.032 458.843 135.448C459.168 136.864 459.208 138.331 458.96 139.762C458.713 141.194 458.183 142.562 457.402 143.787C456.621 145.013 455.604 146.07 454.41 146.898C453.216 147.727 451.87 148.309 450.449 148.612C449.028 148.915 447.561 148.933 446.133 148.663C444.705 148.394 443.345 147.843 442.132 147.043C440.919 146.243 439.878 145.21 439.068 144.004C438.945 143.823 438.826 143.639 438.715 143.455C440.44 145.651 442.939 147.104 445.7 147.519C448.461 147.934 451.277 147.278 453.571 145.687Z" fill="#945B79"/>
<g opacity="0.1">
<path opacity="0.1" d="M418.862 136.825C419.719 135.751 420.428 134.55 421.443 133.616C421.61 133.464 421.784 133.321 421.965 133.188C421.13 133.534 420.359 134.018 419.684 134.62C418.669 135.547 417.96 136.749 417.103 137.828C416.232 138.908 415.2 139.846 414.043 140.611C415.912 139.725 417.559 138.431 418.862 136.825Z" fill="black"/>
<path opacity="0.1" d="M443.14 206.61C439.826 207.155 436.492 207.703 433.132 207.683C431.496 207.683 429.81 207.517 428.357 206.758C426.904 206 425.732 204.527 425.746 202.888C425.764 200.536 427.995 198.909 429.915 197.547C433.246 195.184 436.524 192.066 437.006 188.011C437.326 185.316 436.343 182.647 435.293 180.135C433.692 176.314 431.253 172.079 427.143 171.533C423.623 171.064 420.289 173.575 416.739 173.429C413.857 173.307 411.404 171.455 409.668 169.276C408.402 167.689 407.603 165.565 405.704 164.623C400.99 162.29 394.798 164.04 391.119 159.309C388.885 156.427 389.13 152.352 389.953 148.808C390.472 146.57 391.21 144.321 392.654 142.536C393.059 142.039 393.521 141.592 394.03 141.203C392.805 141.703 391.726 142.506 390.895 143.537C389.436 145.319 388.71 147.571 388.191 149.805C387.365 153.358 387.123 157.433 389.358 160.306C393.021 165.029 399.214 163.281 403.942 165.621C405.841 166.566 406.64 168.689 407.903 170.288C409.654 172.464 412.092 174.319 414.974 174.442C418.524 174.593 421.861 172.073 425.382 172.543C429.489 173.091 431.93 177.324 433.532 181.148C434.582 183.65 435.573 186.316 435.244 189.023C434.763 193.078 431.481 196.196 428.15 198.559C426.233 199.918 423.999 201.549 423.982 203.9C423.982 205.536 425.148 207.012 426.607 207.77C428.065 208.529 429.745 208.686 431.382 208.695C434.742 208.716 438.091 208.167 441.39 207.619C452.474 205.79 463.579 203.958 474.494 201.277C473.848 201.271 473.204 201.226 472.563 201.143C462.838 203.357 452.982 204.985 443.14 206.61Z" fill="black"/>
</g>
<path d="M360.805 261.982C363.447 261.982 365.589 260.812 365.589 259.368C365.589 257.925 363.447 256.755 360.805 256.755C358.163 256.755 356.021 257.925 356.021 259.368C356.021 260.812 358.163 261.982 360.805 261.982Z" fill="#FFC1C7"/>
<path opacity="0.3" d="M439.848 64.9955C434.525 63.5749 429.149 62.1486 423.642 61.921C418.135 61.6935 412.414 62.7611 407.919 65.9464C405.671 67.5391 403.804 69.6013 401.911 71.6082C391.86 82.2603 380.64 91.7458 368.465 99.8849C363.562 103.161 358.32 106.285 352.477 107.099C346.635 107.912 340.034 105.888 337.018 100.824L338.814 99.9024" stroke="black" stroke-width="0.21877" stroke-miterlimit="10" stroke-dasharray="3.5 3.5"/>
<path opacity="0.3" d="M492.945 64.5378C495.363 64.2782 497.951 64.3511 500.025 65.6258C502.221 66.9764 503.49 69.4966 503.916 72.0431C504.342 74.5896 504.044 77.1915 503.741 79.7525L502.107 93.5671C501.877 95.5011 501.655 97.5137 502.282 99.3602C502.91 101.207 504.645 102.828 506.585 102.656" stroke="black" stroke-width="0.21877" stroke-miterlimit="10" stroke-dasharray="3.5 3.5"/>
<path opacity="0.3" d="M334.951 181.813C341.179 181.968 348.2 181.813 352.502 177.309C355.769 173.891 356.536 168.882 357.636 164.282C359.623 155.978 363.234 147.986 368.721 141.437C374.207 134.888 381.613 129.842 389.903 127.806C396.566 126.167 403.572 126.476 410.269 125.003C416.967 123.53 423.845 119.56 425.697 112.956" stroke="black" stroke-width="0.21877" stroke-miterlimit="10" stroke-dasharray="3.5 3.5"/>
<path opacity="0.5" d="M439.351 98.4913L422.546 104.617C422.49 104.638 422.44 104.675 422.403 104.723C422.366 104.771 422.343 104.829 422.336 104.889C422.329 104.949 422.339 105.01 422.365 105.065C422.391 105.12 422.432 105.167 422.482 105.2L424.991 106.592C425.134 106.675 425.238 106.811 425.283 106.971L426.721 111.521C426.721 111.714 427.071 111.813 427.103 111.626L427.304 108.068C427.362 107.81 427.497 107.577 427.692 107.4L436.927 100.691C436.954 100.673 436.984 100.661 437.016 100.657C437.048 100.653 437.08 100.657 437.111 100.667C437.14 100.679 437.166 100.698 437.185 100.722C437.205 100.746 437.219 100.775 437.225 100.806C437.23 100.837 437.228 100.869 437.219 100.898C437.209 100.928 437.192 100.955 437.169 100.977L428.958 108.464C428.781 108.65 428.651 108.876 428.582 109.124L427.707 112.096C427.707 112.364 427.893 112.496 428.097 112.283L429.848 110.745C429.877 110.715 429.912 110.692 429.951 110.676C429.99 110.659 430.032 110.651 430.074 110.651C430.116 110.651 430.157 110.659 430.196 110.676C430.235 110.692 430.27 110.715 430.3 110.745L433.748 114.129C433.785 114.166 433.832 114.194 433.883 114.208C433.934 114.223 433.988 114.224 434.04 114.212C434.092 114.2 434.14 114.176 434.18 114.14C434.219 114.105 434.249 114.06 434.267 114.009L439.724 98.923C439.747 98.8662 439.753 98.804 439.741 98.7439C439.729 98.6839 439.7 98.6285 439.658 98.5845C439.615 98.5404 439.561 98.5096 439.501 98.4956C439.442 98.4817 439.379 98.4853 439.322 98.5059L439.351 98.4913Z" fill="#3F3D56"/>
</g>
<defs>
<filter id="filter0_dd" x="0.50332" y="0.54471" width="549.993" height="330.021" filterUnits="userSpaceOnUse" color-interpolation-filters="sRGB">
<feFlood flood-opacity="0" result="BackgroundImageFix"/>
<feColorMatrix in="SourceAlpha" type="matrix" values="0 0 0 0 0 0 0 0 0 0 0 0 0 0 0 0 0 0 127 0" result="hardAlpha"/>
<feOffset dy="1.04139"/>
<feGaussianBlur stdDeviation="6.24834"/>
<feColorMatrix type="matrix" values="0 0 0 0 0 0 0 0 0 0 0 0 0 0 0 0 0 0 0.08 0"/>
<feBlend mode="normal" in2="BackgroundImageFix" result="effect1_dropShadow"/>
<feColorMatrix in="SourceAlpha" type="matrix" values="0 0 0 0 0 0 0 0 0 0 0 0 0 0 0 0 0 0 127 0" result="hardAlpha"/>
<feOffset/>
<feGaussianBlur stdDeviation="0.520695"/>
<feColorMatrix type="matrix" values="0 0 0 0 0 0 0 0 0 0 0 0 0 0 0 0 0 0 0.08 0"/>
<feBlend mode="normal" in2="effect1_dropShadow" result="effect2_dropShadow"/>
<feBlend mode="normal" in="SourceGraphic" in2="effect2_dropShadow" result="shape"/>
</filter>
<linearGradient id="paint0_linear" x1="69" y1="292" x2="742.257" y2="-115.998" gradientUnits="userSpaceOnUse">
<stop stop-color="#35CC79"/>
<stop offset="1" stop-color="#347D55" stop-opacity="0.65"/>
</linearGradient>
<linearGradient id="paint1_linear" x1="105265" y1="142246" x2="105265" y2="51951.3" gradientUnits="userSpaceOnUse">
<stop stop-color="#808080" stop-opacity="0.25"/>
<stop offset="0.54" stop-color="#808080" stop-opacity="0.12"/>
<stop offset="1" stop-color="#808080" stop-opacity="0.1"/>
</linearGradient>
<clipPath id="clip0">
<rect width="327" height="248.464" fill="white" transform="translate(241 39)"/>
</clipPath>
</defs>
</svg>
