<svg width="551" height="331" viewBox="0 0 551 331" fill="none" xmlns="http://www.w3.org/2000/svg">
<g filter="url(#filter0_dd)">
<rect x="13" y="12" width="525" height="305.028" rx="7.28973" fill="url(#paint0_linear)"/>
</g>
<circle cx="71" cy="269" r="25" fill="white"/>
<path d="M82 269.608L64 259.215L68.5 269.608L64 280L82 269.608Z" fill="black"/>
<path d="M275.972 270.368L298.439 252.37C290.862 244.009 283.97 232.105 277.379 218.645L254.912 236.643C263.89 248.191 271.495 259.525 275.972 270.368Z" fill="#3F3D56"/>
<path d="M275.965 251.206C272.302 251.206 269.334 247.843 269.334 243.695C269.334 239.547 272.302 236.185 275.965 236.185C279.627 236.185 282.596 239.547 282.596 243.695C282.596 247.843 279.627 251.206 275.965 251.206Z" fill="white"/>
<path d="M384.351 188.236H386.818C386.904 188.236 386.987 188.275 387.049 188.345C387.11 188.414 387.145 188.508 387.145 188.607V189.833C387.145 189.881 387.136 189.93 387.12 189.974C387.103 190.019 387.079 190.06 387.049 190.095C387.018 190.129 386.982 190.156 386.943 190.175C386.903 190.194 386.861 190.203 386.818 190.203H386.409V192.04H384.76V190.203H384.351C384.265 190.203 384.181 190.164 384.12 190.095C384.059 190.025 384.024 189.931 384.024 189.833V188.607C384.024 188.508 384.059 188.414 384.12 188.345C384.181 188.275 384.265 188.236 384.351 188.236Z" fill="#E6E6E6"/>
<path d="M381.88 199.458C383.391 196.955 384.163 193.974 384.086 190.943C384.085 190.873 384.105 190.805 384.143 190.75C384.181 190.695 384.235 190.656 384.295 190.641V190.111H386.9V190.634H386.935C386.971 190.634 387.005 190.642 387.038 190.657C387.07 190.672 387.1 190.695 387.124 190.723C387.149 190.751 387.169 190.784 387.182 190.821C387.196 190.858 387.202 190.897 387.202 190.937C387.202 190.944 387.202 190.952 387.202 190.959C386.961 194.051 387.698 197.14 389.28 199.675C389.372 199.823 389.419 200 389.414 200.181L389.129 210.159C389.122 210.382 389.04 210.593 388.899 210.748C388.758 210.903 388.569 210.991 388.373 210.993H382.481C382.283 210.991 382.092 210.901 381.951 210.743C381.81 210.584 381.728 210.37 381.725 210.144L381.615 200.456C381.612 200.101 381.704 199.752 381.88 199.458Z" fill="#3F3D56"/>
<path opacity="0.2" d="M384.865 188.637C384.865 188.849 384.939 189.052 385.071 189.202C385.203 189.352 385.383 189.436 385.57 189.436C385.757 189.436 385.936 189.352 386.069 189.202C386.201 189.052 386.275 188.849 386.275 188.637" fill="black"/>
<path d="M383.029 201.38H388.002V205.135H383.029V201.38Z" fill="white"/>
<path d="M306.307 227.218H310.923C311.085 227.218 311.241 227.291 311.356 227.421C311.471 227.551 311.535 227.727 311.535 227.911V230.206C311.535 230.39 311.471 230.566 311.356 230.696C311.241 230.826 311.085 230.899 310.923 230.899H310.158V234.338H307.072V230.899H306.307C306.144 230.899 305.989 230.826 305.874 230.696C305.759 230.566 305.695 230.39 305.695 230.206V227.911C305.695 227.727 305.759 227.551 305.874 227.421C305.989 227.291 306.144 227.218 306.307 227.218Z" fill="#E6E6E6"/>
<path d="M301.683 248.223C304.51 243.537 305.956 237.958 305.812 232.285C305.809 232.154 305.847 232.026 305.918 231.923C305.989 231.82 306.09 231.748 306.203 231.719V230.728H311.078V231.705H311.146C311.211 231.706 311.276 231.72 311.337 231.749C311.398 231.777 311.453 231.819 311.499 231.872C311.545 231.925 311.582 231.987 311.607 232.056C311.632 232.125 311.645 232.198 311.645 232.273C311.645 232.287 311.645 232.3 311.644 232.314C311.26 238.379 312.557 243.817 315.535 248.63C315.706 248.907 315.794 249.239 315.784 249.576L315.251 268.255C315.239 268.672 315.084 269.067 314.82 269.357C314.557 269.648 314.204 269.812 313.836 269.816H302.808C302.436 269.812 302.079 269.644 301.815 269.348C301.55 269.051 301.398 268.649 301.392 268.228L301.186 250.092C301.18 249.426 301.353 248.775 301.683 248.223Z" fill="#3F3D56"/>
<path opacity="0.2" d="M307.269 227.966C307.269 228.362 307.408 228.743 307.656 229.023C307.904 229.304 308.239 229.461 308.59 229.461C308.94 229.461 309.276 229.304 309.523 229.023C309.771 228.743 309.91 228.362 309.91 227.966" fill="black"/>
<path d="M303.429 254.428H313.028C313.17 254.428 313.311 254.463 313.44 254.53C313.569 254.597 313.684 254.695 313.776 254.817C313.869 254.939 313.937 255.083 313.976 255.237C314.015 255.392 314.024 255.555 314.002 255.714L312.552 266.393H304.222L302.461 255.75C302.434 255.588 302.439 255.423 302.475 255.264C302.512 255.105 302.578 254.957 302.671 254.831C302.763 254.705 302.879 254.603 303.01 254.534C303.141 254.464 303.284 254.428 303.429 254.428Z" fill="white"/>
<path d="M319.479 270.339H346.998C345.074 258.557 345.517 244.33 346.998 229.03H319.479C320.921 244.33 321.352 258.557 319.479 270.339Z" fill="#3F3D56"/>
<path d="M333.072 256.069C329.41 256.069 326.441 252.706 326.441 248.558C326.441 244.41 329.41 241.048 333.072 241.048C336.734 241.048 339.703 244.41 339.703 248.558C339.703 252.706 336.734 256.069 333.072 256.069Z" fill="white"/>
<path d="M432.037 140.335L425.859 139.699L421.928 128.886L428.948 124.433L432.037 140.335Z" fill="#FFB8B8"/>
<path d="M375.341 170.022C375.136 169.442 375.055 168.815 375.106 168.192C375.156 167.57 375.337 166.97 375.632 166.442C375.928 165.914 376.33 165.473 376.805 165.155C377.281 164.838 377.816 164.653 378.367 164.616L387.959 163.968L389.371 169.287L379.497 172.359C378.672 172.615 377.792 172.519 377.026 172.088C376.259 171.657 375.659 170.922 375.341 170.022Z" fill="#FFB8B8"/>
<path d="M385.64 172.449L385.746 162.467L407.051 158.617L423.465 137.295C424.319 136.186 425.499 135.465 426.786 135.265C428.074 135.066 429.381 135.402 430.467 136.211C431.124 136.7 431.679 137.348 432.091 138.107C432.503 138.866 432.763 139.718 432.852 140.604C432.941 141.489 432.858 142.386 432.607 143.231C432.357 144.075 431.946 144.848 431.403 145.493L417.862 164.367L385.64 172.449Z" fill="#575A89"/>
<path d="M436.811 284.733H431.194L417.264 213.398L402.833 235.435L394.408 283.143H389.073L390.196 231.936L409.01 177.23H427.544C432.609 187.612 436.582 198.314 432.037 209.354L436.811 284.733Z" fill="#2F2E41"/>
<path d="M397.851 289.066C397.913 289.291 397.932 289.528 397.907 289.762C397.882 289.996 397.813 290.222 397.705 290.423C397.597 290.625 397.452 290.798 397.28 290.931C397.108 291.064 396.913 291.154 396.708 291.195L382.966 293.958C382.422 294.07 381.862 293.954 381.389 293.631C380.917 293.307 380.565 292.799 380.4 292.202C380.24 291.632 380.263 291.016 380.464 290.463C380.665 289.909 381.031 289.454 381.499 289.176C384.521 287.419 387.122 284.858 389.078 281.713C390.589 283.306 392.277 283.156 394.07 281.982L395.971 282.251L397.851 289.066Z" fill="#2F2E41"/>
<path d="M439.412 289.066C439.474 289.291 439.493 289.528 439.468 289.762C439.442 289.996 439.373 290.222 439.265 290.423C439.157 290.625 439.012 290.798 438.841 290.931C438.669 291.064 438.474 291.154 438.269 291.195L424.526 293.958C423.983 294.07 423.422 293.954 422.95 293.631C422.477 293.307 422.126 292.799 421.961 292.202C421.801 291.632 421.823 291.016 422.024 290.463C422.225 289.909 422.592 289.454 423.06 289.176C426.082 287.419 428.682 284.858 430.639 281.713C432.149 283.306 433.838 283.156 435.63 281.982L437.532 282.251L439.412 289.066Z" fill="#2F2E41"/>
<path d="M421.788 132.862C417.445 132.862 413.925 128.875 413.925 123.956C413.925 119.038 417.445 115.051 421.788 115.051C426.13 115.051 429.65 119.038 429.65 123.956C429.65 128.875 426.13 132.862 421.788 132.862Z" fill="#FFB8B8"/>
<path d="M428.808 179.616L408.309 178.98L414.329 157.52C410.588 150.727 414.353 143.94 419.681 137.156L423.894 133.975L430.633 133.339C433.551 136.875 435.147 141.553 435.088 146.393C434.955 156.757 433.335 168.039 428.808 179.616Z" fill="#575A89"/>
<path d="M381.71 194.06C381.32 193.619 381.028 193.078 380.858 192.483C380.688 191.888 380.646 191.256 380.734 190.639C380.822 190.022 381.039 189.437 381.366 188.934C381.693 188.43 382.12 188.021 382.614 187.742L391.208 182.872L394.354 187.133L386.342 194.357C385.673 194.96 384.831 195.264 383.976 195.209C383.122 195.155 382.315 194.746 381.71 194.06Z" fill="#FFB8B8"/>
<path d="M392.022 191.702L388.653 182.478L406.903 169.445L414.588 142.529C414.988 141.129 415.822 139.94 416.937 139.183C418.051 138.426 419.37 138.152 420.649 138.412C421.423 138.57 422.158 138.918 422.8 139.432C423.443 139.946 423.978 140.614 424.367 141.388C424.757 142.163 424.992 143.024 425.055 143.912C425.118 144.801 425.008 145.694 424.733 146.529L418.84 169.915L392.022 191.702Z" fill="#575A89"/>
<path d="M434.705 120.457C434.705 123.922 432.718 129.289 430.212 131.589C428.526 133.137 426.298 133.072 425.438 130.953C424.557 128.779 421.519 123.671 416.172 120.457C409.043 116.173 418.7 108.844 425.438 109.961C430.502 110.801 434.705 114.66 434.705 120.457Z" fill="#2F2E41"/>
<path d="M429.931 115.687C426.829 115.687 424.315 112.839 424.315 109.326C424.315 105.813 426.829 102.965 429.931 102.965C433.032 102.965 435.547 105.813 435.547 109.326C435.547 112.839 433.032 115.687 429.931 115.687Z" fill="#2F2E41"/>
<path d="M423.473 107.099C423.474 105.496 424.009 103.952 424.973 102.776C425.936 101.601 427.256 100.882 428.668 100.762C428.528 100.751 428.389 100.738 428.247 100.738C426.757 100.738 425.329 101.408 424.276 102.601C423.222 103.794 422.631 105.412 422.631 107.099C422.631 108.786 423.222 110.404 424.276 111.597C425.329 112.79 426.757 113.461 428.247 113.461C428.389 113.461 428.528 113.448 428.668 113.436C427.256 113.317 425.936 112.598 424.973 111.422C424.009 110.247 423.474 108.703 423.473 107.099Z" fill="#2F2E41"/>
<path d="M421.647 127.136C420.949 127.136 420.383 126.282 420.383 125.228C420.383 124.174 420.949 123.319 421.647 123.319C422.344 123.319 422.91 124.174 422.91 125.228C422.91 126.282 422.344 127.136 421.647 127.136Z" fill="#FFB8B8"/>
<path d="M262.524 273.068H349.95L368.464 173.941H384.264V169.493H365.281L346.767 268.619H262.524V273.068Z" fill="#3F3D56"/>
<path d="M337.138 291.177C332.49 291.177 328.722 286.91 328.722 281.646C328.722 276.382 332.49 272.114 337.138 272.114C341.785 272.114 345.553 276.382 345.553 281.646C345.553 286.91 341.785 291.177 337.138 291.177Z" fill="#3F3D56"/>
<path d="M274.304 291.177C269.656 291.177 265.888 286.91 265.888 281.646C265.888 276.382 269.656 272.114 274.304 272.114C278.951 272.114 282.719 276.382 282.719 281.646C282.719 286.91 278.951 291.177 274.304 291.177Z" fill="#3F3D56"/>
<path d="M264.118 270.973H349.179L364.188 186.967H250.034C249.452 186.967 248.876 187.11 248.347 187.386C247.818 187.662 247.348 188.065 246.969 188.566C246.591 189.067 246.313 189.656 246.154 190.29C245.995 190.925 245.96 191.591 246.05 192.243L260.135 267.114C260.28 268.191 260.762 269.173 261.494 269.882C262.225 270.59 263.156 270.977 264.118 270.973ZM348.256 269.702H264.118C263.424 269.705 262.752 269.426 262.224 268.914C261.696 268.403 261.348 267.694 261.244 266.917L247.159 192.046C247.094 191.575 247.119 191.095 247.234 190.636C247.348 190.178 247.549 189.754 247.822 189.392C248.095 189.03 248.434 188.739 248.816 188.54C249.198 188.341 249.614 188.238 250.034 188.238H362.826L348.256 269.702Z" fill="#3F3D56"/>
<path d="M332.642 270.704L342.471 187.706L341.364 187.499L331.535 270.497L332.642 270.704Z" fill="#3F3D56"/>
<path d="M277.992 270.067L279.1 269.864L269.558 187.501L268.45 187.704L277.992 270.067Z" fill="#3F3D56"/>
<path d="M304.03 187.603H305.152V270.6H304.03V187.603Z" fill="#3F3D56"/>
<path d="M358.454 209.842L358.457 211.113L249.847 211.411L249.844 210.14L358.454 209.842Z" fill="#3F3D56"/>
<path d="M257.509 249.1L352.926 249.839L352.918 251.11L257.501 250.371L257.509 249.1Z" fill="#3F3D56"/>
<path d="M382.579 174.895C379.171 174.895 376.408 173.188 376.408 171.082C376.408 168.976 379.171 167.27 382.579 167.27C385.987 167.27 388.75 168.976 388.75 171.082C388.75 173.188 385.987 174.895 382.579 174.895Z" fill="#3F3D56"/>
<defs>
<filter id="filter0_dd" x="0.50332" y="0.54471" width="549.993" height="330.021" filterUnits="userSpaceOnUse" color-interpolation-filters="sRGB">
<feFlood flood-opacity="0" result="BackgroundImageFix"/>
<feColorMatrix in="SourceAlpha" type="matrix" values="0 0 0 0 0 0 0 0 0 0 0 0 0 0 0 0 0 0 127 0" result="hardAlpha"/>
<feOffset dy="1.04139"/>
<feGaussianBlur stdDeviation="6.24834"/>
<feColorMatrix type="matrix" values="0 0 0 0 0 0 0 0 0 0 0 0 0 0 0 0 0 0 0.08 0"/>
<feBlend mode="normal" in2="BackgroundImageFix" result="effect1_dropShadow"/>
<feColorMatrix in="SourceAlpha" type="matrix" values="0 0 0 0 0 0 0 0 0 0 0 0 0 0 0 0 0 0 127 0" result="hardAlpha"/>
<feOffset/>
<feGaussianBlur stdDeviation="0.520695"/>
<feColorMatrix type="matrix" values="0 0 0 0 0 0 0 0 0 0 0 0 0 0 0 0 0 0 0.08 0"/>
<feBlend mode="normal" in2="effect1_dropShadow" result="effect2_dropShadow"/>
<feBlend mode="normal" in="SourceGraphic" in2="effect2_dropShadow" result="shape"/>
</filter>
<linearGradient id="paint0_linear" x1="69" y1="292" x2="742.257" y2="-115.998" gradientUnits="userSpaceOnUse">
<stop stop-color="#35CC79"/>
<stop offset="1" stop-color="#347D55" stop-opacity="0.65"/>
</linearGradient>
</defs>
</svg>
